<svg width="95" height="55" viewBox="0 0 95 55" fill="none" xmlns="http://www.w3.org/2000/svg">
<path d="M24.5992 4.27344C24.5992 5.32812 24.3648 6.61719 23.8961 8.14062C23.4508 9.66406 22.8063 11.3633 21.9625 13.2383C21.1422 15.0898 20.1461 17.0938 18.9742 19.25C17.8023 21.4062 16.5016 23.6445 15.0719 25.9648C13.6656 28.2617 12.1422 30.6055 10.5016 32.9961C8.86094 35.3633 7.15 37.707 5.36875 40.0273C5.29844 40.707 5.25156 41.375 5.22813 42.0312C5.22813 42.6641 5.22813 43.2734 5.22813 43.8594C5.22813 44.75 5.26328 45.5586 5.3336 46.2852C5.40391 46.9883 5.53281 47.6094 5.72031 48.1484C5.93125 48.6641 6.2125 49.0625 6.56406 49.3438C6.91563 49.625 7.36094 49.7656 7.9 49.7656C8.34531 49.7656 8.80235 49.6133 9.2711 49.3086C9.76328 48.9805 10.2438 48.5586 10.7125 48.043C11.1813 47.5273 11.6266 46.9414 12.0484 46.2852C12.4938 45.6289 12.9039 44.9727 13.2789 44.3164C13.6539 43.6602 13.9938 43.0273 14.2984 42.418C14.6031 41.8086 14.8375 41.2812 15.0016 40.8359C15.1188 40.5781 15.2477 40.4258 15.3883 40.3789C15.5523 40.3086 15.6695 40.2734 15.7398 40.2734C15.8805 40.2734 15.9977 40.332 16.0914 40.4492C16.1852 40.5664 16.232 40.7188 16.232 40.9062C16.232 41 16.1852 41.1406 16.0914 41.3281C15.2945 43.2266 14.4391 44.9844 13.525 46.6016C12.6109 48.2188 11.6734 49.6133 10.7125 50.7852C9.75156 51.957 8.79063 52.8711 7.82969 53.5273C6.89219 54.1836 6.00156 54.5117 5.15781 54.5117C4.50156 54.5117 3.86875 54.3711 3.25938 54.0898C2.65 53.8086 2.09922 53.3398 1.60703 52.6836C1.13828 52.0273 0.763283 51.1602 0.482033 50.082C0.177345 48.9805 0.0250015 47.6211 0.0250015 46.0039C0.0250015 43.7773 0.259377 41.4805 0.728127 39.1133C1.17344 36.7227 1.7711 34.3555 2.5211 32.0117C3.2711 29.6445 4.11485 27.3359 5.05235 25.0859C6.01328 22.8359 6.98594 20.7148 7.97031 18.7227C8.95469 16.7305 9.91563 14.9141 10.8531 13.2734C11.7906 11.6328 12.6227 10.2383 13.3492 9.08984C14.1695 7.77734 14.9664 6.58203 15.7398 5.50391C16.5367 4.42578 17.2867 3.51172 17.9898 2.76172C18.7164 1.98828 19.4078 1.40234 20.0641 1.00391C20.7203 0.582031 21.3414 0.371094 21.9273 0.371094C22.7945 0.371094 23.4508 0.734375 23.8961 1.46094C24.3648 2.16406 24.5992 3.10156 24.5992 4.27344ZM7.0211 31.4141C6.73985 32.4688 6.48203 33.4766 6.24766 34.4375C6.03672 35.3984 5.86094 36.3242 5.72031 37.2148C7.94688 33.957 9.90391 30.8398 11.5914 27.8633C13.2789 24.8867 14.6852 22.1914 15.8102 19.7773C16.9352 17.3398 17.7789 15.2539 18.3414 13.5195C18.9039 11.7617 19.1852 10.4727 19.1852 9.65234C19.1852 9.18359 19.1266 8.86719 19.0094 8.70312C18.8922 8.51563 18.693 8.42188 18.4117 8.42188C18.0602 8.42188 17.5914 8.79688 17.0055 9.54688C16.4195 10.2734 15.775 11.2461 15.0719 12.4648C14.3688 13.6836 13.6305 15.0898 12.857 16.6836C12.0836 18.2539 11.3336 19.8945 10.607 21.6055C9.88047 23.3164 9.20078 25.0273 8.56797 26.7383C7.93516 28.4258 7.41953 29.9844 7.0211 31.4141ZM37.4861 41.3281C36.9939 42.6406 36.3728 44.0117 35.6228 45.4414C34.8963 46.8711 34.0877 48.1836 33.197 49.3789C32.3064 50.5508 31.3572 51.5234 30.3494 52.2969C29.3416 53.0469 28.3338 53.4219 27.3259 53.4219C26.6463 53.4219 26.0838 53.2578 25.6384 52.9297C25.1931 52.5781 24.8298 52.1562 24.5486 51.6641C24.2908 51.1484 24.1033 50.5977 23.9861 50.0117C23.8689 49.4258 23.8103 48.8867 23.8103 48.3945C23.8103 47.6445 23.8923 46.7773 24.0564 45.793C24.2439 44.8086 24.5955 43.6836 25.1111 42.418C24.3142 43.4961 23.4705 44.5977 22.5798 45.7227C21.7127 46.8242 20.822 47.8203 19.908 48.7109C19.0173 49.6016 18.115 50.3398 17.2009 50.9258C16.3103 51.4883 15.4666 51.7695 14.6697 51.7695C14.2947 51.7695 13.8963 51.6758 13.4744 51.4883C13.0525 51.2773 12.6658 50.9844 12.3142 50.6094C11.9392 50.2109 11.6345 49.7305 11.4002 49.168C11.1658 48.582 11.0486 47.9141 11.0486 47.1641C11.0486 45.8984 11.3416 44.5039 11.9275 42.9805C12.5134 41.4336 13.2517 39.8867 14.1423 38.3398C15.0564 36.793 16.0642 35.293 17.1658 33.8398C18.2673 32.3867 19.3338 31.1211 20.365 30.043C21.3025 29.0352 22.1814 28.1797 23.0017 27.4766C23.8455 26.7734 24.6306 26.2109 25.3572 25.7891C26.1072 25.3438 26.8103 25.0273 27.4666 24.8398C28.1228 24.6289 28.7556 24.5117 29.365 24.4883C29.9275 24.4883 30.3963 24.5586 30.7713 24.6992C31.1463 24.8164 31.4392 24.9805 31.6502 25.1914C31.8611 25.4023 32.0017 25.6484 32.072 25.9297C32.1658 26.2109 32.2127 26.5039 32.2127 26.8086C32.2127 27.1367 32.1189 27.5586 31.9314 28.0742C31.7439 28.5898 31.4861 29.1055 31.158 29.6211C30.8298 30.1367 30.4431 30.582 29.9978 30.957C29.5759 31.3086 29.1189 31.4844 28.6267 31.4844C28.4392 31.4844 28.322 31.4141 28.2752 31.2734C28.2283 31.1328 28.2048 30.957 28.2048 30.7461C28.2048 30.3477 28.2517 29.8789 28.3455 29.3398C28.4392 28.8008 28.4861 28.332 28.4861 27.9336C28.4861 27.582 28.4392 27.3359 28.3455 27.1953C28.2752 27.0312 28.1111 26.9492 27.8533 26.9492C27.2439 27.207 26.5877 27.7109 25.8845 28.4609C25.2048 29.1875 24.5252 30.0547 23.8455 31.0625C23.1658 32.0469 22.5095 33.125 21.8767 34.2969C21.2673 35.4453 20.7166 36.5938 20.2244 37.7422C19.7556 38.8672 19.3806 39.9453 19.0994 40.9766C18.8181 41.9844 18.6775 42.8281 18.6775 43.5078C18.6775 44 18.7478 44.3867 18.8884 44.668C19.0291 44.9492 19.2048 45.0898 19.4158 45.0898C19.5798 45.0898 19.8377 44.9375 20.1892 44.6328C20.5408 44.3281 20.9392 43.9297 21.3845 43.4375C21.8533 42.9453 22.3338 42.3945 22.8259 41.7852C23.3181 41.1523 23.7986 40.5312 24.2673 39.9219C24.7595 39.3125 25.2048 38.7383 25.6033 38.1992C26.0017 37.6602 26.3181 37.2148 26.5525 36.8633C27.1619 35.9727 27.5838 35.2812 27.8181 34.7891C28.0759 34.2969 28.3455 34.0508 28.6267 34.0508C28.7439 34.0508 28.908 34.1445 29.1189 34.332C29.3533 34.5195 29.5759 34.7422 29.7869 35C30.0213 35.2344 30.2205 35.4805 30.3845 35.7383C30.5486 35.9961 30.6306 36.1836 30.6306 36.3008C30.6306 36.6289 30.4783 37.0977 30.1736 37.707C29.8689 38.293 29.447 39.2422 28.908 40.5547C28.2986 41.9609 27.8416 43.2734 27.5369 44.4922C27.2556 45.7109 27.115 46.7891 27.115 47.7266C27.115 48.0547 27.1384 48.3828 27.1853 48.7109C27.2322 49.0391 27.3142 49.3438 27.4314 49.625C27.5486 49.8828 27.7127 50.1055 27.9236 50.293C28.1345 50.457 28.4158 50.5391 28.7673 50.5391C29.3298 50.5391 29.9041 50.3164 30.49 49.8711C31.0994 49.4023 31.6736 48.8164 32.2127 48.1133C32.7752 47.4102 33.3025 46.6602 33.7947 45.8633C34.2869 45.043 34.7205 44.2695 35.0955 43.543C35.4705 42.8164 35.7634 42.207 35.9744 41.7148C36.2088 41.1992 36.3494 40.9062 36.3963 40.8359C36.5838 40.4609 36.8064 40.2734 37.0642 40.2734C37.2048 40.2734 37.3338 40.3203 37.4509 40.4141C37.5681 40.5078 37.6267 40.6484 37.6267 40.8359C37.6267 40.9766 37.5798 41.1406 37.4861 41.3281ZM62.5567 30.6758C62.5567 30.957 62.4981 31.5312 62.3809 32.3984C62.2872 33.2422 62.1114 34.25 61.8536 35.4219C61.6192 36.5703 61.2794 37.8242 60.8341 39.1836C60.3888 40.543 59.838 41.8789 59.1817 43.1914C58.1505 45.2305 57.1309 46.9531 56.1231 48.3594C55.1153 49.7422 54.1544 50.8672 53.2403 51.7344C52.3263 52.6016 51.4708 53.2227 50.6739 53.5977C49.877 53.9727 49.1856 54.1602 48.5997 54.1602C47.7325 54.1602 46.9825 53.9375 46.3497 53.4922C45.7169 53.0703 45.1895 52.4609 44.7677 51.6641C44.3458 50.8438 44.0294 49.8594 43.8184 48.7109C43.6075 47.5625 43.502 46.2852 43.502 44.8789C43.502 43.6367 43.5841 42.3359 43.7481 40.9766C43.9122 39.6172 44.1583 38.1992 44.4864 36.7227C44.8145 35.3398 45.2247 34.0156 45.7169 32.75C46.2325 31.4609 46.7364 30.3125 47.2286 29.3047C47.7442 28.2734 48.213 27.418 48.6348 26.7383C49.0567 26.0352 49.338 25.5781 49.4786 25.3672C49.6895 25.0391 49.8888 24.7578 50.0763 24.5234C50.2638 24.2656 50.4864 24.1367 50.7442 24.1367C50.9552 24.1367 51.2364 24.3711 51.588 24.8398C51.963 25.2852 52.338 25.8008 52.713 26.3867C53.088 26.9492 53.4044 27.5117 53.6622 28.0742C53.9434 28.6367 54.0841 29.0234 54.0841 29.2344C54.0841 29.6328 53.8731 30.2422 53.4513 31.0625C53.0528 31.8828 52.6309 32.832 52.1856 33.9102C51.7638 34.9648 51.3184 36.1367 50.8497 37.4258C50.3809 38.6914 49.9356 39.957 49.5138 41.2227C49.1153 42.4648 48.7755 43.6602 48.4942 44.8086C48.2364 45.957 48.1075 46.9297 48.1075 47.7266C48.1075 48.6875 48.2598 49.4141 48.5645 49.9062C48.8927 50.375 49.2911 50.6094 49.7598 50.6094C50.1114 50.6094 50.545 50.3984 51.0606 49.9766C51.5763 49.5312 52.1153 48.8984 52.6778 48.0781C53.2403 47.2578 53.8028 46.25 54.3653 45.0547C54.9278 43.8594 55.4317 42.5 55.877 40.9766C56.3223 39.4062 56.6505 38.0586 56.8614 36.9336C57.0958 35.8086 57.2598 34.8594 57.3536 34.0859C57.4708 33.3125 57.5645 32.6914 57.6348 32.2227C57.7052 31.7539 57.8106 31.3789 57.9513 31.0977C58.1153 30.793 58.3497 30.5586 58.6544 30.3945C58.9825 30.2305 59.4513 30.0664 60.0606 29.9023C60.5294 29.7383 60.9747 29.6562 61.3966 29.6562C62.17 29.6562 62.5567 29.9961 62.5567 30.6758ZM82.4397 17C82.4397 17.5156 82.2873 18.1367 81.9827 18.8633C81.678 19.5664 81.2795 20.2461 80.7873 20.9023C80.3186 21.5352 79.7913 22.0742 79.2053 22.5195C78.6428 22.9648 78.092 23.1875 77.553 23.1875C76.8264 23.1875 76.2053 22.9648 75.6897 22.5195C75.1975 22.0742 74.9514 21.6055 74.9514 21.1133C74.9514 20.9023 75.0217 20.5859 75.1623 20.1641C75.3264 19.7422 75.5256 19.2852 75.76 18.793C76.0178 18.2773 76.3108 17.7617 76.6389 17.2461C76.9905 16.707 77.3538 16.2266 77.7288 15.8047C78.1272 15.3594 78.5139 15.0078 78.8889 14.75C79.2873 14.4688 79.6741 14.3281 80.0491 14.3281C80.9866 14.3281 81.6194 14.5508 81.9475 14.9961C82.2756 15.4414 82.4397 16.1094 82.4397 17ZM77.9045 41.3281C77.0842 43.1797 76.1819 44.8789 75.1975 46.4258C74.2366 47.9492 73.2405 49.2617 72.2092 50.3633C71.178 51.4414 70.1116 52.2852 69.01 52.8945C67.9319 53.5039 66.8655 53.8086 65.8108 53.8086C65.0139 53.8086 64.3342 53.6328 63.7717 53.2812C63.2092 52.9531 62.7522 52.4961 62.4006 51.9102C62.0256 51.3242 61.7561 50.6445 61.592 49.8711C61.428 49.0742 61.3459 48.2188 61.3459 47.3047C61.3459 45.5938 61.5803 43.9062 62.0491 42.2422C62.5178 40.5547 63.1155 38.9141 63.842 37.3203C64.592 35.7031 65.4358 34.1211 66.3733 32.5742C67.3108 31.0273 68.2483 29.5273 69.1858 28.0742C69.3967 27.7227 69.6545 27.4062 69.9592 27.125C70.2639 26.8438 70.5569 26.7031 70.8381 26.7031C71.2366 26.7031 71.635 26.7734 72.0334 26.9141C72.4319 27.0547 72.7952 27.2422 73.1233 27.4766C73.4514 27.6875 73.7092 27.9336 73.8967 28.2148C74.1077 28.4727 74.2131 28.7422 74.2131 29.0234C74.2131 29.3516 74.0139 29.8906 73.6155 30.6406C73.217 31.3906 72.7131 32.293 72.1038 33.3477C71.4944 34.3789 70.8381 35.5273 70.135 36.793C69.4553 38.0586 68.8108 39.3711 68.2014 40.7305C67.592 42.0898 67.0881 43.4609 66.6897 44.8438C66.2913 46.2031 66.092 47.5039 66.092 48.7461C66.092 49.0508 66.1038 49.3555 66.1272 49.6602C66.1741 49.9414 66.2561 50.1992 66.3733 50.4336C66.5139 50.6445 66.7131 50.8203 66.9709 50.9609C67.2522 51.0781 67.6272 51.1367 68.0959 51.1367C68.5881 51.1367 69.1975 50.8438 69.9241 50.2578C70.6741 49.6719 71.4475 48.8984 72.2444 47.9375C73.0647 46.9531 73.8733 45.8516 74.6702 44.6328C75.4905 43.3906 76.2053 42.125 76.8147 40.8359C77.0022 40.4609 77.2131 40.2734 77.4475 40.2734C77.6116 40.2734 77.7522 40.3203 77.8694 40.4141C77.9866 40.5078 78.0452 40.6484 78.0452 40.8359C78.0452 40.9766 77.9983 41.1406 77.9045 41.3281ZM94.4828 41.3281C93.6391 43.0625 92.6547 44.7031 91.5297 46.25C90.4047 47.7969 89.1859 49.1562 87.8734 50.3281C86.5844 51.4766 85.2133 52.3906 83.7602 53.0703C82.3305 53.75 80.8891 54.0898 79.4359 54.0898C78.3812 54.0898 77.4437 53.8672 76.6234 53.4219C75.8031 53 75.1117 52.4141 74.5492 51.6641C73.9867 50.9141 73.5648 50.0352 73.2836 49.0273C73.0023 48.0195 72.8617 46.9414 72.8617 45.793C72.8617 43.8945 73.1195 42.0664 73.6352 40.3086C74.1508 38.5508 74.8305 36.9102 75.6742 35.3867C76.518 33.8633 77.4789 32.4688 78.557 31.2031C79.6352 29.9375 80.725 28.8594 81.8266 27.9688C82.9281 27.0547 83.9945 26.3516 85.0258 25.8594C86.0805 25.3672 86.9945 25.1211 87.768 25.1211C88.3539 25.1211 88.8695 25.2383 89.3148 25.4727C89.7836 25.707 90.1703 26.0234 90.475 26.4219C90.7797 26.7969 91.0023 27.2188 91.143 27.6875C91.307 28.1562 91.3891 28.625 91.3891 29.0938C91.3891 30.5234 91.0141 32.0117 90.2641 33.5586C89.5141 35.082 88.5297 36.5352 87.3109 37.918C86.0922 39.2773 84.7211 40.5078 83.1977 41.6094C81.6742 42.6875 80.1273 43.4844 78.557 44C78.557 44.8672 78.6391 45.6875 78.8031 46.4609C78.9906 47.2109 79.2602 47.8789 79.6117 48.4648C79.9867 49.0273 80.4555 49.4844 81.018 49.8359C81.5805 50.1641 82.2484 50.3281 83.0219 50.3281C83.7953 50.3281 84.5805 50.1758 85.3773 49.8711C86.1742 49.543 86.9945 49.0156 87.8383 48.2891C88.7055 47.5391 89.5961 46.5547 90.5102 45.3359C91.4242 44.1172 92.3852 42.6172 93.393 40.8359C93.6273 40.4609 93.8383 40.2734 94.0258 40.2734C94.1898 40.2734 94.3305 40.3203 94.4477 40.4141C94.5648 40.5078 94.6234 40.6484 94.6234 40.8359C94.6234 40.9766 94.5766 41.1406 94.4828 41.3281ZM86.643 29.1641C85.9633 29.1641 85.2016 29.5625 84.3578 30.3594C83.5375 31.1562 82.7406 32.1875 81.9672 33.4531C81.1937 34.6953 80.4906 36.0898 79.8578 37.6367C79.2484 39.1602 78.8383 40.6602 78.6273 42.1367C79.7758 41.5977 80.9125 40.9297 82.0375 40.1328C83.1859 39.3125 84.2055 38.4102 85.0961 37.4258C86.0102 36.4414 86.7484 35.3984 87.3109 34.2969C87.8734 33.1719 88.1547 32.0352 88.1547 30.8867C88.1547 30.418 88.0258 30.0195 87.768 29.6914C87.5102 29.3398 87.1352 29.1641 86.643 29.1641Z" fill="#9F5C4C"/>
</svg>
