<svg width="511" height="82" viewBox="0 0 511 82" fill="none" xmlns="http://www.w3.org/2000/svg" xmlns:xlink="http://www.w3.org/1999/xlink">
<style>.NATURE_STYLE_728 {
	animation: 5s linear 0s 1 normal forwards running NATURE_STYLE_728;
		opacity: 0;animation-iteration-count: infinite;
}
@keyframes NATURE_STYLE_728 {
	0% {
		opacity: 0;
	}
	72% {
		opacity: 0;
	}
	78% {
		opacity: 1;
	}
	100% {
		opacity: 1;
	}
}.NATURE_STYLE_569 {
	animation: 5s linear 0s 1 normal forwards running NATURE_STYLE_569;
		opacity: 0;animation-iteration-count: infinite;
}
@keyframes NATURE_STYLE_569 {
	0% {
		opacity: 0;
	}
	66% {
		opacity: 0;
	}
	72% {
		opacity: 1;
	}
	100% {
		opacity: 1;
	}
}.NATURE_STYLE_968 {
	animation: 5s linear 0s 1 normal forwards running NATURE_STYLE_968;
		opacity: 0;animation-iteration-count: infinite;
}
@keyframes NATURE_STYLE_968 {
	0% {
		opacity: 0;
	}
	54% {
		opacity: 0;
	}
	60% {
		opacity: 1;
	}
	100% {
		opacity: 1;
	}
}.NATURE_STYLE_526 {
	animation: 5s linear 0s 1 normal forwards running NATURE_STYLE_526;
		opacity: 0;animation-iteration-count: infinite;
}
@keyframes NATURE_STYLE_526 {
	0% {
		opacity: 0;
	}
	36% {
		opacity: 0;
	}
	42% {
		opacity: 1;
	}
	100% {
		opacity: 1;
	}
}.NATURE_STYLE_159 {
	animation: 5s linear 0s 1 normal forwards running NATURE_STYLE_159;
		opacity: 0;animation-iteration-count: infinite;
}
@keyframes NATURE_STYLE_159 {
	0% {
		opacity: 0;
	}
	30% {
		opacity: 0;
	}
	36% {
		opacity: 1;
	}
	100% {
		opacity: 1;
	}
}.NATURE_STYLE_474 {
	animation: 5s linear 0s 1 normal forwards running NATURE_STYLE_474;
		opacity: 1;animation-iteration-count: infinite;
}
@keyframes NATURE_STYLE_474 {
	0% {
		opacity: 1;
	}
	6% {
		opacity: 1;
	}
	100% {
		opacity: 1;
	}
}.a_924 {
	animation: 5s linear 0s 1 normal forwards running a_924;
		opacity: 0;animation-iteration-count: infinite;
}
@keyframes a_924 {
	0% {
		opacity: 0;
	}
	6% {
		opacity: 0;
	}
	12% {
		opacity: 1;
	}
	100% {
		opacity: 1;
	}
}.t_766 {
	animation: 5s linear 0s 1 normal forwards running t_766;
		opacity: 0;animation-iteration-count: infinite;
}
@keyframes t_766 {
	0% {
		opacity: 0;
	}
	14% {
		opacity: 0;
	}
	20% {
		opacity: 1;
	}
	100% {
		opacity: 1;
	}
}.u_298 {
	animation: 5s linear 0s 1 normal forwards running u_298;
		opacity: 0;animation-iteration-count: infinite;
}
@keyframes u_298 {
	0% {
		opacity: 0;
	}
	20% {
		opacity: 0;
	}
	26% {
		opacity: 1;
	}
	100% {
		opacity: 1;
	}
}.s_255 {
	animation: 5s linear 0s 1 normal forwards running s_255;
		opacity: 0;animation-iteration-count: infinite;
}
@keyframes s_255 {
	0% {
		opacity: 0;
	}
	46% {
		opacity: 0;
	}
	52% {
		opacity: 1;
	}
	100% {
		opacity: 1;
	}
}.y_312 {
	animation: 5s linear 0s 1 normal forwards running y_312;
		opacity: 0;animation-iteration-count: infinite;
}
@keyframes y_312 {
	0% {
		opacity: 0;
	}
	60% {
		opacity: 0;
	}
	66% {
		opacity: 1;
	}
	100% {
		opacity: 1;
	}
}._877 {
	animation: 5s linear 0s 1 normal forwards running _877;
		opacity: 0;animation-iteration-count: infinite;
}
@keyframes _877 {
	0% {
		opacity: 0;
	}
	36% {
		opacity: 0;
	}
	42% {
		opacity: 1;
	}
	100% {
		opacity: 1;
	}
}._185 {
	animation: 5s linear 0s 1 normal forwards running _185;
		opacity: 0;animation-iteration-count: infinite;
}
@keyframes _185 {
	0% {
		opacity: 0;
	}
	42% {
		opacity: 0;
	}
	48% {
		opacity: 1;
	}
	100% {
		opacity: 1;
	}
}._147 {
	animation: 5s linear 0s 1 normal forwards running _147;
		opacity: 0;animation-iteration-count: infinite;
}
@keyframes _147 {
	0% {
		opacity: 0;
	}
	48% {
		opacity: 0;
	}
	54% {
		opacity: 1;
	}
	100% {
		opacity: 1;
	}
}._732 {
	animation: 5s linear 0s 1 normal forwards running _732;
		opacity: 0;animation-iteration-count: infinite;
}
@keyframes _732 {
	0% {
		opacity: 0;
	}
	54% {
		opacity: 0;
	}
	60% {
		opacity: 1;
	}
	100% {
		opacity: 1;
	}
}._904 {
	animation: 5s linear 0s 1 normal forwards running _904;
		opacity: 0;animation-iteration-count: infinite;
}
@keyframes _904 {
	0% {
		opacity: 0;
	}
	60% {
		opacity: 0;
	}
	66% {
		opacity: 1;
	}
	100% {
		opacity: 1;
	}
}._99 {
	animation: 5s linear 0s 1 normal forwards running _99;
		opacity: 0;animation-iteration-count: infinite;
}
@keyframes _99 {
	0% {
		opacity: 0;
	}
	66% {
		opacity: 0;
	}
	72% {
		opacity: 1;
	}
	100% {
		opacity: 1;
	}
}.Group_7_479 {
	animation: 5s linear 0s 1 normal forwards running Group_7_479;
		transform: translateX(342.32px) translateY(61.51px);
		opacity: 0;animation-iteration-count: infinite;
}
@keyframes Group_7_479 {
	0% {
		transform: translateX(342.32px) translateY(61.51px);
		opacity: 0;
	}
	70% {
		transform: translateX(212.1px) translateY(61.51px);
		opacity: 0;
	}
	76% {
		opacity: 1;
	}
	88% {
		opacity: 1;
	}
	92% {
		transform: translateX(282.1px) translateY(61.51px);
	}
	100% {
		transform: translateX(282.1px) translateY(61.51px);
		opacity: 1;
	}
}._285 {
	animation: 5s linear 0s 1 normal forwards running _285;
		opacity: 1;animation-iteration-count: infinite;
}
@keyframes _285 {
	0% {
		opacity: 1;
	}
	100% {
		opacity: 1;
	}
}
</style>
<g clip-path="url(#clip_0_844)" width="511" height="82" data-name="Frame 11">
	<rect width="511" height="82" fill="#9F5C4C" data-name="Frame 11"/>
	<path d="M11.1822 17.3438V27.6562C11.1822 28.7969 11.2603 29.6875 11.4166 30.3281C11.5884 30.9531 11.8931 31.4219 12.3306 31.7344C12.7681 32.0312 13.3931 32.2188 14.2056 32.2969C15.0338 32.375 16.1588 32.4141 17.5806 32.4141C19.2994 32.4141 20.8384 32.1562 22.1978 31.6406C23.5728 31.1094 24.8619 30.3359 26.065 29.3203C27.2838 28.2891 28.6119 26.9219 30.0494 25.2188H31.9244L28.9947 33.7031H0.143127V32.4141C1.53375 32.3828 2.58844 32.2656 3.30719 32.0625C4.04156 31.8438 4.55719 31.4922 4.85406 31.0078C5.16656 30.5078 5.32281 29.8047 5.32281 28.8984V5.71875C5.32281 4.625 5.18219 3.82812 4.90094 3.32812C4.61969 2.82812 4.14313 2.49219 3.47125 2.32031C2.79938 2.13281 1.69 2 0.143127 1.92188V0.632812H27.8463L30.6822 8.10938H28.9947C28.0884 6.96875 26.9791 5.9375 25.6666 5.01562C24.3697 4.07812 22.9088 3.32812 21.2838 2.76562C19.6744 2.20312 17.9713 1.92188 16.1744 1.92188C14.7525 1.92188 13.6822 2.07812 12.9634 2.39062C12.2447 2.6875 11.7681 3.10938 11.5338 3.65625C11.2994 4.20312 11.1822 4.92188 11.1822 5.8125V16.0312H15.8931C20.0025 16.0312 22.0806 14.1484 22.1275 10.3828H23.7681V22.8047H22.315C22.1275 20.8984 21.5884 19.5156 20.6978 18.6562C19.8228 17.7812 18.4791 17.3438 16.6666 17.3438H11.1822ZM26.6509 32.4141L28.2681 28.3359C27.3463 29.3359 26.5103 30.0859 25.7603 30.5859C25.0103 31.0703 23.9478 31.6797 22.5728 32.4141H26.6509ZM21.8463 18.8672V14.2734C21.2369 15.3203 20.1275 16.0859 18.5181 16.5703C19.3775 16.8047 20.0572 17.0859 20.5572 17.4141C21.0572 17.7422 21.4869 18.2266 21.8463 18.8672ZM25.6431 1.92188H21.4009C22.5728 2.3125 23.6119 2.78125 24.5181 3.32812C25.4244 3.875 26.3853 4.53125 27.4009 5.29688L25.6431 1.92188ZM6.09625 5.90625V28.5703C6.09625 29.7109 5.96344 30.5469 5.69781 31.0781C5.43219 31.6094 5.03375 32.0547 4.5025 32.4141C5.79938 32.3984 6.63531 32.0625 7.01031 31.4062C7.40094 30.7344 7.59625 29.6562 7.59625 28.1719V5.48438C7.59625 4.15625 7.36969 3.28125 6.91656 2.85938C6.46344 2.42188 5.65875 2.1875 4.5025 2.15625C5.08063 2.46875 5.48688 2.89062 5.72125 3.42188C5.97125 3.9375 6.09625 4.76562 6.09625 5.90625Z" fill="#FAF9F9" data-name="NATURE STYLE" class="NATURE_STYLE_728" transform="translate(476.14 4.63)"/>
	<path d="M0.875488 1.92188V0.632812H17.1645V1.92188H16.438C15.2192 1.92188 14.2817 2.03125 13.6255 2.25C12.9849 2.46875 12.5317 2.875 12.2661 3.46875C12.0005 4.04688 11.8677 4.875 11.8677 5.95312V28.8984C11.8677 29.7891 12.0161 30.4844 12.313 30.9844C12.6255 31.4688 13.1802 31.8281 13.9771 32.0625C14.7739 32.2969 15.8989 32.4141 17.352 32.4141C18.5864 32.4141 19.7192 32.3125 20.7505 32.1094C21.7817 31.9062 22.8052 31.5469 23.8208 31.0312C24.8364 30.5156 25.8833 29.7812 26.9614 28.8281C28.0395 27.875 29.1255 26.6875 30.2192 25.2656H32.3755L29.2583 33.7031H0.875488V32.4141H1.18018C2.58643 32.4141 3.62549 32.2891 4.29736 32.0391C4.96924 31.7734 5.42236 31.3672 5.65674 30.8203C5.90674 30.2578 6.03174 29.4766 6.03174 28.4766V6.30469C6.03174 5.13281 5.92236 4.25 5.70361 3.65625C5.50049 3.0625 5.02393 2.625 4.27393 2.34375C3.53955 2.0625 2.40674 1.92188 0.875488 1.92188ZM6.78174 5.53125V29.5312C6.78174 30.2969 6.64111 30.8906 6.35986 31.3125C6.09424 31.7344 5.68018 32.1016 5.11768 32.4141C5.18018 32.4141 5.31299 32.4297 5.51611 32.4609C5.71924 32.4922 5.85205 32.5078 5.91455 32.5078C7.49268 32.5078 8.28174 31.3672 8.28174 29.0859V6.58594C8.28174 5.00781 8.15674 3.83594 7.90674 3.07031C7.67236 2.30469 6.97705 1.92188 5.8208 1.92188H5.11768C5.7583 2.29688 6.1958 2.70312 6.43018 3.14062C6.66455 3.57812 6.78174 4.375 6.78174 5.53125ZM22.6723 32.4141H26.9614L28.977 27.7969C28.0864 28.8594 27.1333 29.7656 26.1177 30.5156C25.1177 31.25 23.9692 31.8828 22.6723 32.4141Z" fill="#FAF9F9" data-name="NATURE STYLE" class="NATURE_STYLE_569" transform="translate(432.88 4.63)"/>
	<path d="M1.8562 0.632812H31.6453L33.3328 8.36719H31.6453C30.4421 6.35156 29.1843 4.875 27.8718 3.9375C26.5593 3 25.3171 2.4375 24.1453 2.25C22.989 2.0625 21.4734 1.95312 19.5984 1.92188V28.5703C19.5984 29.6016 19.7625 30.3906 20.0906 30.9375C20.4187 31.4688 20.9578 31.8359 21.7078 32.0391C22.4578 32.2422 23.5046 32.3672 24.8484 32.4141V33.7031H8.4187V32.4141C9.77808 32.3828 10.8171 32.2812 11.5359 32.1094C12.2703 31.9219 12.8171 31.5469 13.1765 30.9844C13.5515 30.4062 13.739 29.5078 13.739 28.2891V1.92188C12.0515 1.9375 10.5828 2.10938 9.33276 2.4375C8.08276 2.75 7.03589 3.17969 6.19214 3.72656C5.34839 4.27344 4.64526 4.85938 4.08276 5.48438C3.53589 6.09375 2.72339 7.05469 1.64526 8.36719H0.215576L1.8562 0.632812ZM30.6843 5.67188L29.6296 1.92188H25.2234C26.4109 2.29688 27.4031 2.78125 28.2 3.375C28.9968 3.96875 29.825 4.73438 30.6843 5.67188ZM16.0125 27.75V4.71094C16.0125 3.80469 15.9031 3.125 15.6843 2.67188C15.4812 2.21875 15.0906 1.96875 14.5125 1.92188V28.5703C14.5125 29.5391 14.3953 30.3125 14.1609 30.8906C13.9265 31.4688 13.489 31.9766 12.8484 32.4141H13.364C14.5046 32.4141 15.2312 32.0547 15.5437 31.3359C15.8562 30.6172 16.0125 29.4219 16.0125 27.75ZM6.21558 1.92188H2.4187L1.50464 5.90625C2.30151 4.85938 2.99683 4.08594 3.59058 3.58594C4.18433 3.07031 5.05933 2.51562 6.21558 1.92188Z" fill="#FAF9F9" data-name="NATURE STYLE" class="NATURE_STYLE_968" transform="translate(342.22 4.63)"/>
	<path d="M11.624 17.3438V27.6562C11.624 28.7969 11.7021 29.6875 11.8584 30.3281C12.0303 30.9531 12.335 31.4219 12.7725 31.7344C13.21 32.0312 13.835 32.2188 14.6475 32.2969C15.4756 32.375 16.6006 32.4141 18.0225 32.4141C19.7412 32.4141 21.2803 32.1562 22.6397 31.6406C24.0147 31.1094 25.3037 30.3359 26.5069 29.3203C27.7256 28.2891 29.0537 26.9219 30.4912 25.2188H32.3662L29.4365 33.7031H0.584961V32.4141C1.97559 32.3828 3.03027 32.2656 3.74902 32.0625C4.4834 31.8438 4.99902 31.4922 5.2959 31.0078C5.6084 30.5078 5.76465 29.8047 5.76465 28.8984V5.71875C5.76465 4.625 5.62402 3.82812 5.34277 3.32812C5.06152 2.82812 4.58496 2.49219 3.91309 2.32031C3.24121 2.13281 2.13184 2 0.584961 1.92188V0.632812H28.2881L31.124 8.10938H29.4365C28.5303 6.96875 27.4209 5.9375 26.1084 5.01562C24.8115 4.07812 23.3506 3.32812 21.7256 2.76562C20.1162 2.20312 18.4131 1.92188 16.6162 1.92188C15.1943 1.92188 14.124 2.07812 13.4053 2.39062C12.6865 2.6875 12.21 3.10938 11.9756 3.65625C11.7412 4.20312 11.624 4.92188 11.624 5.8125V16.0312H16.335C20.4443 16.0312 22.5225 14.1484 22.5694 10.3828H24.21V22.8047H22.7569C22.5694 20.8984 22.0303 19.5156 21.1397 18.6562C20.2647 17.7812 18.9209 17.3438 17.1084 17.3438H11.624ZM27.0928 32.4141L28.71 28.3359C27.7881 29.3359 26.9522 30.0859 26.2022 30.5859C25.4522 31.0703 24.3897 31.6797 23.0147 32.4141H27.0928ZM22.2881 18.8672V14.2734C21.6787 15.3203 20.5693 16.0859 18.96 16.5703C19.8193 16.8047 20.499 17.0859 20.999 17.4141C21.499 17.7422 21.9287 18.2266 22.2881 18.8672ZM26.085 1.92188H21.8428C23.0147 2.3125 24.0537 2.78125 24.96 3.32812C25.8662 3.875 26.8272 4.53125 27.8428 5.29688L26.085 1.92188ZM6.53809 5.90625V28.5703C6.53809 29.7109 6.40527 30.5469 6.13965 31.0781C5.87402 31.6094 5.47559 32.0547 4.94434 32.4141C6.24121 32.3984 7.07715 32.0625 7.45215 31.4062C7.84277 30.7344 8.03809 29.6562 8.03809 28.1719V5.48438C8.03809 4.15625 7.81152 3.28125 7.3584 2.85938C6.90527 2.42188 6.10059 2.1875 4.94434 2.15625C5.52246 2.46875 5.92871 2.89062 6.16309 3.42188C6.41309 3.9375 6.53809 4.76562 6.53809 5.90625Z" fill="#FAF9F9" data-name="NATURE STYLE" class="NATURE_STYLE_526" transform="translate(237.58 4.63)"/>
	<path d="M16.9502 33.7031H0.708008V32.4141C2.22363 32.3828 3.34863 32.2656 4.08301 32.0625C4.81738 31.8438 5.31738 31.4609 5.58301 30.9141C5.86426 30.3672 6.00488 29.5078 6.00488 28.3359V6.44531C6.00488 5.19531 5.8877 4.26562 5.65332 3.65625C5.41895 3.04688 4.93457 2.61719 4.2002 2.36719C3.48145 2.11719 2.31738 1.96875 0.708008 1.92188V0.632812H19.2002C21.5283 0.632812 23.5596 1.03906 25.2939 1.85156C27.0439 2.64844 28.3564 3.71875 29.2314 5.0625C30.1221 6.39062 30.5674 7.82812 30.5674 9.375C30.5674 10.3906 30.3643 11.3828 29.958 12.3516C29.5518 13.3047 28.9658 14.1719 28.2002 14.9531C27.4346 15.7344 26.5049 16.4062 25.4111 16.9688C24.333 17.5156 23.0752 17.9062 21.6377 18.1406C22.7158 19.2188 24.0439 20.7422 25.6221 22.7109L27.9424 25.4531C28.0674 25.5938 28.2236 25.7734 28.4111 25.9922C28.5986 26.1953 28.8408 26.4609 29.1377 26.7891C29.8877 27.6953 30.5205 28.4453 31.0361 29.0391C31.5518 29.6172 32.0596 30.1406 32.5596 30.6094C33.0752 31.0781 33.5752 31.4609 34.0596 31.7578C34.5439 32.0391 35.0596 32.2578 35.6064 32.4141V33.7031H31.2002C30.2002 33.7031 29.2549 33.4844 28.3643 33.0469C27.4736 32.5938 26.6143 31.9609 25.7861 31.1484C24.9736 30.3359 24.0439 29.2656 22.9971 27.9375L19.7158 23.7656C18.2002 21.7969 17.0674 20.4375 16.3174 19.6875C15.583 18.9219 14.9424 18.5391 14.3955 18.5391H11.7939V28.4766C11.7939 29.4609 11.9189 30.2344 12.1689 30.7969C12.4189 31.3594 12.9658 31.7656 13.8096 32.0156C14.2627 32.1406 14.8174 32.2422 15.4736 32.3203C16.1299 32.3984 16.6221 32.4297 16.9502 32.4141V33.7031ZM6.75488 6.25781V29.3906C6.75488 30.8594 6.21582 31.8672 5.1377 32.4141C7.18457 32.3672 8.20801 31.5781 8.20801 30.0469V6.39844C8.20801 5.19531 8.1377 4.28906 7.99707 3.67969C7.87207 3.05469 7.56738 2.59375 7.08301 2.29688C6.61426 2 5.8877 1.875 4.90332 1.92188C5.71582 2.28125 6.22363 2.75781 6.42676 3.35156C6.64551 3.92969 6.75488 4.89844 6.75488 6.25781ZM11.7939 6.67969V17.25H15.5908C16.8721 17.25 18.1377 17.0469 19.3877 16.6406C20.6377 16.2188 21.583 15.6953 22.2236 15.0703C23.5049 13.8672 24.1455 12.0312 24.1455 9.5625C24.1455 6.64062 23.1533 4.49219 21.1689 3.11719C20.4658 2.63281 19.7314 2.3125 18.9658 2.15625C18.2002 2 17.2236 1.92188 16.0361 1.92188C14.833 1.92188 13.9189 2.08594 13.2939 2.41406C12.6846 2.72656 12.2783 3.21094 12.0752 3.86719C11.8877 4.50781 11.7939 5.44531 11.7939 6.67969ZM17.9111 18.5391H15.9893C16.5518 18.9609 17.2002 19.5938 17.9346 20.4375C18.6846 21.2812 19.6221 22.4219 20.7471 23.8594C21.8721 25.2969 23.0049 26.7578 24.1455 28.2422C25.1924 29.5703 26.1611 30.5938 27.0518 31.3125C27.9424 32.0156 28.7314 32.4688 29.4189 32.6719C30.1064 32.875 30.8408 32.9922 31.6221 33.0234C30.6533 32.5547 29.7236 31.9141 28.833 31.1016C27.9424 30.2734 26.9814 29.2344 25.9502 27.9844C24.9346 26.7188 23.8799 25.3906 22.7861 24C21.708 22.6094 20.5908 21.2969 19.4346 20.0625C19.2783 19.8438 19.083 19.6016 18.8486 19.3359C18.6299 19.0547 18.3174 18.7891 17.9111 18.5391ZM19.9736 17.1328C22.0674 16.8672 23.6768 16.0859 24.8018 14.7891C25.9268 13.4922 26.4893 11.7344 26.4893 9.51562C26.4893 7.35938 25.9893 5.64844 24.9893 4.38281C23.9893 3.10156 22.5674 2.32812 20.7236 2.0625C22.1299 2.78125 23.1768 3.75 23.8643 4.96875C24.5674 6.17188 24.9189 7.78125 24.9189 9.79688C24.9189 11.9219 24.5049 13.5156 23.6768 14.5781C22.8643 15.6406 21.6299 16.4922 19.9736 17.1328Z" fill="#FAF9F9" data-name="NATURE STYLE" class="NATURE_STYLE_159" transform="translate(190.71 4.63)"/>
	<path d="M24.6382 1.92188V0.632812H37.1772V1.92188C36.1304 1.95312 35.2085 2.1875 34.4116 2.625C33.6304 3.0625 33.0132 3.70312 32.5601 4.54688C32.1069 5.375 31.8804 6.375 31.8804 7.54688L32.3257 34.4297H30.8726L6.91943 6.44531L7.271 25.2656C7.30225 26.4375 7.396 27.4297 7.55225 28.2422C7.7085 29.0391 7.98975 29.7344 8.396 30.3281C8.80225 30.9219 9.38037 31.3906 10.1304 31.7344C10.896 32.0781 11.8804 32.3047 13.0835 32.4141V33.7031H0.638184V32.4141C2.26318 32.2891 3.46631 31.8516 4.24756 31.1016C5.04443 30.3516 5.53662 29.4219 5.72412 28.3125C5.91162 27.1875 5.97412 25.7812 5.91162 24.0938L5.5835 4.89844C4.69287 3.92969 3.82568 3.19531 2.98193 2.69531C2.13818 2.17969 1.26318 1.92188 0.356934 1.92188H0.0756836V0.632812H9.75537L30.8726 25.2656L30.5444 8.78906C30.5444 7.52344 30.4116 6.45312 30.146 5.57812C29.896 4.6875 29.4663 3.96875 28.8569 3.42188C28.4194 2.98438 27.7866 2.625 26.9585 2.34375C26.146 2.04688 25.3726 1.90625 24.6382 1.92188ZM32.8413 1.92188H27.7085C28.4897 2.1875 29.1226 2.55469 29.6069 3.02344C30.1069 3.49219 30.5288 4.13281 30.8726 4.94531C31.2319 3.55469 31.8882 2.54688 32.8413 1.92188ZM29.1616 28.7578L8.04443 4.125C7.60693 3.5625 7.0835 3.05469 6.47412 2.60156C5.88037 2.14844 5.03662 1.92188 3.94287 1.92188H2.88818C3.76318 2.23438 4.44287 2.61719 4.92725 3.07031C5.41162 3.50781 6.09131 4.25 6.96631 5.29688L31.0366 33.3281C31.021 32.875 30.9976 32.4375 30.9663 32.0156C30.9507 31.5781 30.9038 31.2578 30.8257 31.0547C30.7476 30.8359 30.5991 30.5703 30.3804 30.2578C30.1616 29.9453 29.7554 29.4453 29.1616 28.7578ZM3.521 32.4141H8.46631C7.77881 31.8828 7.28662 31.3906 6.98975 30.9375C6.7085 30.4844 6.46631 29.8516 6.26318 29.0391C6.06006 29.7734 5.74756 30.4141 5.32568 30.9609C4.90381 31.4922 4.30225 31.9766 3.521 32.4141Z" fill="#FAF9F9" data-name="NATURE STYLE" class="NATURE_STYLE_474" transform="translate(2.08 4.63)"/>
	<path d="M23.468 27.9375L20.843 21.2344H9.75708L8.21021 25.2188C7.80396 26.2344 7.60083 27.2891 7.60083 28.3828C7.60083 29.4297 7.92896 30.3516 8.58521 31.1484C9.25708 31.9453 10.1868 32.3672 11.3743 32.4141V33.7031H0.522705V32.4141C2.94458 32.0547 4.89771 29.9688 6.38208 26.1562L14.4915 5.39062C14.0696 4.65625 13.6243 4.16406 13.1555 3.91406C12.6868 3.64844 11.9993 3.46875 11.093 3.375V2.22656L16.718 0.304688H18.8743L29.7258 27.9844C30.3508 29.5469 30.9758 30.6094 31.6008 31.1719C32.2258 31.7188 33.179 32.1328 34.4602 32.4141V33.7031H20.5383V32.4141C21.7415 32.2891 22.6399 32.1016 23.2336 31.8516C23.843 31.6016 24.1477 31.1172 24.1477 30.3984C24.1477 29.7734 23.9211 28.9531 23.468 27.9375ZM10.3196 19.7344H20.2571L15.2649 7.10156L10.3196 19.7344ZM25.6008 27.0703L17.2336 5.85938C16.8274 4.79688 16.4055 4.04688 15.968 3.60938C15.5305 3.15625 14.929 2.92969 14.1633 2.92969C13.7102 2.92969 13.343 2.96094 13.0618 3.02344C13.8118 3.32031 14.3743 3.73438 14.7493 4.26562C15.1399 4.79688 15.5071 5.50781 15.8508 6.39844L24.1477 27.6094C24.6633 28.8594 24.9211 29.8359 24.9211 30.5391C24.9211 30.9922 24.8352 31.3203 24.6633 31.5234C24.4915 31.7266 24.1477 32.0234 23.6321 32.4141H24.1477C24.8821 32.4141 25.4446 32.2188 25.8352 31.8281C26.2415 31.4375 26.4446 30.9766 26.4446 30.4453C26.4446 29.6797 26.1633 28.5547 25.6008 27.0703ZM3.03052 32.4141H7.53052C6.54614 31.6484 6.05396 30.6875 6.05396 29.5312C6.05396 29.2031 6.06958 28.9453 6.10083 28.7578C5.67896 29.5391 5.24927 30.2031 4.81177 30.75C4.38989 31.2969 3.79614 31.8516 3.03052 32.4141Z" fill="#FAF9F9" data-name="a" class="a_924" transform="translate(50.52 4.3)"/>
	<path d="M1.75122 0.632812H31.5403L33.2278 8.36719H31.5403C30.3372 6.35156 29.0793 4.875 27.7668 3.9375C26.4543 3 25.2122 2.4375 24.0403 2.25C22.884 2.0625 21.3684 1.95312 19.4934 1.92188V28.5703C19.4934 29.6016 19.6575 30.3906 19.9856 30.9375C20.3137 31.4688 20.8528 31.8359 21.6028 32.0391C22.3528 32.2422 23.3997 32.3672 24.7434 32.4141V33.7031H8.31372V32.4141C9.6731 32.3828 10.7122 32.2812 11.4309 32.1094C12.1653 31.9219 12.7122 31.5469 13.0715 30.9844C13.4465 30.4062 13.634 29.5078 13.634 28.2891V1.92188C11.9465 1.9375 10.4778 2.10938 9.22778 2.4375C7.97778 2.75 6.93091 3.17969 6.08716 3.72656C5.24341 4.27344 4.54028 4.85938 3.97778 5.48438C3.43091 6.09375 2.61841 7.05469 1.54028 8.36719H0.110596L1.75122 0.632812ZM30.5793 5.67188L29.5247 1.92188H25.1184C26.3059 2.29688 27.2981 2.78125 28.095 3.375C28.8918 3.96875 29.72 4.73438 30.5793 5.67188ZM15.9075 27.75V4.71094C15.9075 3.80469 15.7981 3.125 15.5793 2.67188C15.3762 2.21875 14.9856 1.96875 14.4075 1.92188V28.5703C14.4075 29.5391 14.2903 30.3125 14.0559 30.8906C13.8215 31.4688 13.384 31.9766 12.7434 32.4141H13.259C14.3997 32.4141 15.1262 32.0547 15.4387 31.3359C15.7512 30.6172 15.9075 29.4219 15.9075 27.75ZM6.1106 1.92188H2.31372L1.39966 5.90625C2.19653 4.85938 2.89185 4.08594 3.4856 3.58594C4.07935 3.07031 4.95435 2.51562 6.1106 1.92188Z" fill="#FAF9F9" data-name="t" class="t_766" transform="translate(96.11 4.63)"/>
	<path d="M5.66724 23.625V5.76562C5.66724 4.59375 5.48755 3.75781 5.12817 3.25781C4.78442 2.74219 4.28442 2.42188 3.62817 2.29688C2.98755 2.17188 1.92505 2.04688 0.440674 1.92188V0.632812H16.3313V1.92188C15.0813 2 14.1438 2.11719 13.5188 2.27344C12.8938 2.41406 12.4094 2.72656 12.0657 3.21094C11.7375 3.69531 11.5735 4.46875 11.5735 5.53125V24.1406C11.5735 25.8594 11.9563 27.3516 12.7219 28.6172C13.5032 29.8672 14.6047 30.8125 16.0266 31.4531C17.4485 32.0938 19.1047 32.4141 20.9954 32.4141C22.9797 32.4141 24.7141 32.0469 26.1985 31.3125C27.6985 30.5781 28.8704 29.4688 29.7141 27.9844C30.5579 26.5 30.9797 24.7109 30.9797 22.6172V11.8125C30.9797 9.375 30.8 7.46094 30.4407 6.07031C30.0813 4.67969 29.4797 3.66406 28.636 3.02344C27.7922 2.36719 26.6047 2 25.0735 1.92188V0.632812H37.1204V1.92188C35.7454 2.10938 34.7063 2.59375 34.0032 3.375C33.3157 4.15625 32.8547 5.1875 32.6204 6.46875C32.386 7.73438 32.2688 9.30469 32.2688 11.1797V23.2969C32.2688 24.9688 31.9563 26.4922 31.3313 27.8672C30.7219 29.2266 29.8313 30.3984 28.6594 31.3828C27.4875 32.3516 26.0735 33.0859 24.4172 33.5859C22.7766 34.0859 20.9016 34.3359 18.7922 34.3359C13.761 34.3359 10.0422 32.9219 7.63599 30.0938C6.90161 29.1875 6.38599 28.2344 6.08911 27.2344C5.80786 26.2344 5.66724 25.0312 5.66724 23.625ZM7.98755 23.7656V5.03906C7.98755 2.72656 6.87817 1.6875 4.65942 1.92188C5.84692 2.39062 6.44067 3.51562 6.44067 5.29688V24C6.44067 26.6719 7.22192 28.7656 8.78442 30.2812C10.3469 31.7812 12.6907 32.875 15.8157 33.5625C14.6125 33.0469 13.5891 32.5469 12.7454 32.0625C11.9016 31.5625 11.1125 30.9453 10.3782 30.2109C9.6438 29.4766 9.05786 28.5703 8.62036 27.4922C8.19849 26.4141 7.98755 25.1719 7.98755 23.7656ZM33.0422 1.92188H28.2375C29.675 2.57812 30.5891 3.8125 30.9797 5.625C31.1672 4.73438 31.4094 3.99219 31.7063 3.39844C32.0188 2.80469 32.4641 2.3125 33.0422 1.92188Z" fill="#FAF9F9" data-name="u" class="u_298" transform="translate(141.44 4.63)"/>
	<path d="M1.22949 21.7969H2.77635C3.63573 24.2656 4.66698 26.3438 5.8701 28.0312C7.08885 29.7031 8.40916 30.9453 9.83104 31.7578C11.2685 32.5703 12.7685 32.9766 14.331 32.9766C16.2842 32.9766 17.956 32.3672 19.3467 31.1484C20.7373 29.9297 21.4326 28.3672 21.4326 26.4609C21.4326 24.6797 20.9717 23.2969 20.0498 22.3125C19.1279 21.3125 18.0264 20.6172 16.7451 20.2266C15.4639 19.8203 13.7764 19.4453 11.6826 19.1016C9.58885 18.7578 8.10448 18.4375 7.22948 18.1406C5.8701 17.6719 4.71385 17.0312 3.76073 16.2188C2.8076 15.3906 2.08105 14.4062 1.58105 13.2656C1.09668 12.1094 0.854492 10.875 0.854492 9.5625C0.854492 8.3125 1.07324 7.10938 1.51074 5.95312C1.94824 4.79688 2.56541 3.77344 3.36229 2.88281C4.15916 1.99219 5.12791 1.28906 6.26854 0.773438C7.42479 0.257812 8.70604 0 10.1123 0C11.1279 0 12.3701 0.148438 13.8389 0.445312C15.3232 0.726562 16.4014 0.867188 17.0732 0.867188C17.917 0.867188 18.7139 0.679688 19.4639 0.304688H21.2451L22.2529 9.9375H20.6123C19.081 7.0625 17.4717 4.875 15.7842 3.375C14.1123 1.85938 12.1435 1.10156 9.87791 1.10156C8.75291 1.10156 7.70604 1.36719 6.73729 1.89844C5.76854 2.41406 4.98729 3.13281 4.39354 4.05469C3.81541 4.97656 3.52635 5.99219 3.52635 7.10156C3.52635 8.66406 4.0576 9.85938 5.1201 10.6875C6.1826 11.5156 7.75291 12.1406 9.83104 12.5625C11.9248 12.9844 13.792 13.3438 15.4326 13.6406C17.0889 13.9375 18.4014 14.3203 19.3701 14.7891C21.1514 15.6641 22.5342 16.875 23.5185 18.4219C24.5029 19.9688 24.9951 21.7188 24.9951 23.6719C24.9951 25.5469 24.542 27.2969 23.6357 28.9219C22.7295 30.5469 21.456 31.8516 19.8154 32.8359C18.1748 33.8047 16.3467 34.2891 14.331 34.2891C13.1904 34.2891 12.331 34.2031 11.7529 34.0312C11.1748 33.8594 10.1826 33.5234 8.77635 33.0234C7.3701 32.5234 6.29198 32.2734 5.54198 32.2734C4.29198 32.2734 3.29979 32.75 2.56541 33.7031H1.22949V21.7969ZM19.6748 6.63281L18.9014 2.15625C18.3857 2.32812 17.8701 2.41406 17.3545 2.41406C16.792 2.41406 16.1826 2.32812 15.5264 2.15625C16.1514 2.5625 16.6982 3.01562 17.167 3.51562C17.6357 4.01562 18.1279 4.61719 18.6435 5.32031C19.1592 6.02344 19.5029 6.46094 19.6748 6.63281ZM2.00293 26.1562V32.4141C2.45605 31.8203 2.8701 31.4375 3.2451 31.2656C3.63573 31.0938 4.22948 31.0234 5.02635 31.0547C4.51073 30.4453 4.13573 30 3.90135 29.7188C3.6826 29.4219 3.40135 28.9922 3.0576 28.4297C2.72948 27.8516 2.37793 27.0938 2.00293 26.1562ZM2.00293 6.82031C1.7373 8.00781 1.60449 8.96875 1.60449 9.70312C1.60449 10.5312 1.74512 11.3672 2.02637 12.2109C2.30762 13.0391 2.72166 13.8281 3.26854 14.5781C3.81541 15.3125 4.4326 15.9141 5.1201 16.3828C6.04198 17.0078 7.0576 17.4531 8.16698 17.7188C9.27635 17.9688 10.8935 18.2734 13.0185 18.6328C15.1592 18.9766 16.6357 19.3125 17.4482 19.6406C18.9482 20.1875 20.1123 21.0234 20.9404 22.1484C21.7842 23.2734 22.206 24.5938 22.206 26.1094C22.206 27.2344 21.8857 28.4219 21.2451 29.6719C22.5264 28.3438 23.167 26.7891 23.167 25.0078C23.167 23.1641 22.6904 21.7188 21.7373 20.6719C20.7998 19.6094 19.6279 18.8281 18.2217 18.3281C16.831 17.8125 14.9248 17.3438 12.5029 16.9219C10.081 16.4844 8.83885 16.2578 8.77635 16.2422C6.5576 15.6641 4.8701 14.6641 3.71385 13.2422C2.57323 11.8203 2.00293 10.1797 2.00293 8.32031C2.00293 7.97656 1.99512 7.6875 1.97949 7.45312C1.97949 7.21875 1.9873 7.00781 2.00293 6.82031Z" fill="#FAF9F9" data-name="s" class="s_255" transform="translate(304.85 4)"/>
	<path d="M23.2566 1.92188V0.632812H33.7097V1.92188C33.0222 2.01562 32.3191 2.32031 31.6003 2.83594C30.8972 3.33594 30.1706 4.07031 29.4206 5.03906C28.6706 6.00781 27.8972 7.17969 27.1003 8.55469L20.1863 20.4141V28.8516C20.1863 30.3516 20.5535 31.2891 21.2878 31.6641C22.0222 32.0391 23.3191 32.2891 25.1785 32.4141V33.7031H9.38159V32.4141H9.80347C11.1628 32.4141 12.1706 32.2422 12.8269 31.8984C13.4988 31.5391 13.9128 31.0859 14.0691 30.5391C14.241 29.9922 14.3269 29.2734 14.3269 28.3828V21.5625L4.34253 4.80469C3.7644 3.80469 3.21753 3.0625 2.7019 2.57812C2.18628 2.09375 1.29565 1.875 0.0300293 1.92188V0.632812H15.4753V1.92188C14.0691 1.95312 12.9831 2.07031 12.2175 2.27344C11.4519 2.47656 11.0691 3 11.0691 3.84375C11.0691 4.5 11.6238 5.75 12.7331 7.59375L19.5066 18.8672L24.03 11.25C24.8581 9.85938 25.4675 8.67188 25.8581 7.6875C26.2644 6.6875 26.4675 5.75781 26.4675 4.89844C26.4675 4.11719 26.1863 3.42969 25.6238 2.83594C25.0769 2.22656 24.366 1.92188 23.491 1.92188H23.2566ZM27.241 4.75781V5.29688C27.6316 4.45312 28.0144 3.82031 28.3894 3.39844C28.78 2.97656 29.2956 2.48438 29.9363 1.92188H25.8347C26.7722 2.51562 27.241 3.46094 27.241 4.75781ZM16.5769 20.9297L6.8269 4.52344C6.2019 3.44531 5.69409 2.74219 5.30347 2.41406C4.91284 2.08594 4.36597 1.92188 3.66284 1.92188H2.95972C3.36597 2.09375 3.70972 2.36719 3.99097 2.74219C4.27222 3.11719 4.64722 3.71094 5.11597 4.52344L15.1003 21.2812V29.3906C15.1003 30.2812 14.9441 30.9141 14.6316 31.2891C14.3347 31.6641 13.7722 32.0391 12.9441 32.4141H13.9519C14.9363 32.4141 15.616 32.1719 15.991 31.6875C16.3816 31.2031 16.5769 30.4688 16.5769 29.4844V20.9297Z" fill="#FAF9F9" data-name="y" class="y_312" transform="translate(387.03 4.63)"/>
	<path d="M11.5234 10.3391H15.5734V9.07909H11.5234V5.64108H10.1914V9.07909H6.15942V10.3391H10.1914V15.3971H5.45742V16.6571H16.2754V15.3971H11.5234V10.3391ZM7.00542 3.42708C7.32942 2.61708 7.63542 1.78908 7.86942 0.979085L6.50142 0.637085C6.24942 1.55508 5.92542 2.50908 5.54742 3.42708H0.633416V4.70508H4.95342C3.83742 6.99108 2.25342 9.11508 0.201416 10.5731C0.417416 10.8611 0.759416 11.4191 0.885416 11.7791C1.64142 11.2391 2.34342 10.6451 2.97342 9.96109V16.9991H4.28742V8.37708C5.13342 7.22508 5.83542 6.00108 6.46542 4.70508H16.2754V3.42708H7.00542Z" fill="#FAF9F9" data-name="在" class="_877" transform="translate(61.2 61.64)"/>
	<path d="M9.20547 15.2172V10.6452H14.9835V9.34915H9.20547V5.42515H15.6495V4.11115H9.20547V0.655151H7.83747V4.11115H4.18348C4.57948 3.19315 4.90348 2.22115 5.19147 1.23115L3.84147 0.943151C3.13947 3.49915 1.98747 5.98315 0.511475 7.56715C0.871475 7.74715 1.46547 8.14315 1.73547 8.35915C2.40147 7.54915 3.03148 6.55915 3.60748 5.42515H7.83747V9.34915H2.49147V10.6452H7.83747V15.2172H0.547474V16.5132H16.4955V15.2172H9.20547Z" fill="#FAF9F9" data-name="生" class="_185" transform="translate(93.51 61.66)"/>
	<path d="M5.32145 2.72511C4.56545 2.22111 3.05345 1.39311 1.95545 0.871107L1.21745 1.82511C2.31545 2.41911 3.80945 3.28311 4.54745 3.80511L5.32145 2.72511ZM4.40345 7.58511C3.61145 7.08111 2.11745 6.28911 1.07345 5.76711L0.335449 6.73911C1.43345 7.31511 2.90945 8.17911 3.64745 8.68311L4.40345 7.58511ZM1.88345 16.8371C2.94545 15.1811 4.20545 12.9491 5.14145 11.0591L4.16945 10.1771C3.12545 12.2111 1.73945 14.5871 0.767448 15.9371L1.88345 16.8371ZM14.2315 15.0731H7.84145V11.3651H14.2315V15.0731ZM16.6795 7.17111V5.87511H11.7475V2.76111C13.2955 2.49111 14.7354 2.14911 15.9054 1.75311L14.8615 0.709106C12.8635 1.42911 9.24545 1.98711 6.14945 2.31111C6.27545 2.61711 6.45545 3.12111 6.52745 3.44511C7.80545 3.31911 9.15545 3.15711 10.4695 2.95911V5.87511H5.28545V7.17111H10.4695V10.1231H6.59945V17.0711H7.84145V16.3151H14.2315V16.9811H15.5095V10.1231H11.7475V7.17111H16.6795Z" fill="#FAF9F9" data-name="活" class="_147" transform="translate(125.34 61.71)"/>
	<path d="M6.83747 11.2931C6.65747 11.0591 6.17147 10.4831 5.66747 9.88912C6.13547 9.34912 6.67547 8.62912 7.16147 7.96312L6.35147 7.35112C6.04547 7.89112 5.54147 8.64712 5.09146 9.22312C4.83947 8.93512 4.60547 8.66512 4.40747 8.44912C5.23547 7.18912 5.95547 5.82112 6.44147 4.39912L5.73948 3.93112L5.48746 3.98512H4.19147V0.745117H2.91347V3.98512H0.591465V5.20912H4.89347C3.83147 7.65712 1.90547 10.0691 0.105469 11.4371C0.303469 11.6531 0.645463 12.2651 0.789463 12.5891C1.50946 11.9951 2.24747 11.2571 2.96747 10.3931V17.0711H4.24547V9.74512C4.91147 10.5911 5.70348 11.6531 6.04548 12.2111L6.83747 11.2931ZM8.52947 8.12512V5.98312H11.0495V8.12512H8.52947ZM8.52947 2.74312H11.0495V4.86712H8.52947V2.74312ZM14.8655 4.86712H12.3275V2.74312H14.8655V4.86712ZM14.8655 8.12512H12.3275V5.98312H14.8655V8.12512ZM12.3275 15.2891V12.6071H16.2335V11.4011H12.3275V9.31312H16.1255V1.55512H7.28746V9.31312H11.0495V11.4011H7.19747V12.6071H11.0495V15.2891H6.13547V16.5311H16.8095V15.2891H12.3275Z" fill="#FAF9F9" data-name="裡" class="_732" transform="translate(157.11 61.75)"/>
	<path d="M14.0452 0.357056H2.2912V1.31106H12.7492V2.39106H2.72319V3.29106H12.7492V4.37106H2.1832V5.30706H14.0452V0.357056ZM0.689194 10.2931C2.57919 10.1311 5.2252 9.93306 7.8172 9.71706V8.70905C6.7912 8.78105 5.76519 8.85306 4.77519 8.92506V7.23306H7.4572V6.22506H0.923203V7.23306H3.5152V9.01505C2.3992 9.08705 1.3912 9.15906 0.563202 9.21306L0.689194 10.2931ZM9.94119 7.16106H14.0452V8.92506H9.94119V7.16106ZM16.4392 11.0131H12.7312V9.86106H15.3772V6.22506H8.6992V9.86106H11.4172V11.0131H0.221191V12.1651H3.9472L3.19119 12.8131C4.25319 13.4251 5.4592 14.3791 6.0352 15.0631L6.9892 14.1991C6.4132 13.5871 5.31519 12.7411 4.3252 12.1651H11.4172V14.5951C11.4172 14.8291 11.3452 14.9011 11.0392 14.9191C10.7332 14.9371 9.6532 14.9371 8.4832 14.9011C8.6632 15.2431 8.86119 15.7291 8.91519 16.0711C10.4812 16.0711 11.3992 16.0711 11.9932 15.8731C12.5692 15.6931 12.7312 15.3331 12.7312 14.6131V12.1651H16.4392V11.0131Z" fill="#FAF9F9" data-name="尋" class="_904" transform="translate(208.22 62.36)"/>
	<path d="M14.9854 3.64315C14.4814 2.92315 13.3833 1.82515 12.5013 1.08715L11.5113 1.75315C12.3933 2.52715 13.4373 3.66115 13.9233 4.41715L14.9854 3.64315ZM6.50734 9.60115L6.34534 8.37715C5.58934 8.57515 4.83334 8.80915 4.11334 9.00715V5.51515H6.30934V4.25515H4.11334V0.655151H2.81734V4.25515H0.243347V5.51515H2.81734V9.36715C1.77334 9.65515 0.801344 9.92515 0.0273438 10.1052L0.42334 11.4012C1.14334 11.1852 1.95334 10.9692 2.81734 10.6992V15.3792C2.81734 15.6312 2.70934 15.7212 2.45734 15.7212C2.24134 15.7212 1.46735 15.7392 0.603348 15.7032C0.783348 16.0632 0.963349 16.6032 1.01735 16.9452C2.25935 16.9452 2.99735 16.9092 3.46535 16.6932C3.93335 16.4952 4.11334 16.1352 4.11334 15.3792V10.3032L6.50734 9.60115ZM14.2293 7.35115C13.6353 8.70115 12.7533 10.0691 11.6733 11.2752C11.2953 9.94315 10.9714 8.34115 10.7374 6.54115L16.2453 5.94715L16.1013 4.72315L10.5933 5.28115C10.4493 3.84115 10.3413 2.31115 10.2693 0.70915H8.93735C9.00935 2.36515 9.13534 3.93115 9.27934 5.42515L6.52534 5.71315L6.65134 6.97315L9.40535 6.68515C9.69335 8.88115 10.0533 10.8252 10.5933 12.4092C9.22534 13.6872 7.64135 14.7672 5.98535 15.4152C6.36335 15.6852 6.77734 16.1172 7.02934 16.4592C8.45134 15.8112 9.85535 14.8572 11.0974 13.7232C11.9614 15.7032 13.1673 16.8732 14.7693 16.9992C15.6693 17.0712 16.3713 16.1712 16.7853 13.2552C16.4973 13.1472 15.9213 12.8232 15.6513 12.5172C15.4713 14.5152 15.1833 15.4872 14.6973 15.4512C13.6713 15.3432 12.8253 14.3352 12.1593 12.6792C13.4733 11.2752 14.5713 9.65515 15.3273 8.01715L14.2293 7.35115Z" fill="#FAF9F9" data-name="找" class="_99" transform="translate(240.03 61.66)"/>
	<g transform="translate(282.1 61.51)" class="Group_7_479" width="175.81" height="16.6" data-name="Group 7">
		<path d="M5.56396 7.43397H11.054V8.60397H5.56396V7.43397ZM9.68597 10.926H12.872V10.116H9.68597V9.32397H12.26V6.69597H4.42999V9.32397H8.49799V10.116H3.60199V10.926H8.49799V12.006H5.22198C5.27598 11.754 5.32997 11.484 5.36597 11.214L4.33997 11.106C4.23197 11.826 4.034 12.636 3.854 13.23L4.88 13.338C4.934 13.194 4.96999 13.032 5.02399 12.852H8.49799V14.166H9.68597V12.852H13.466V12.006H9.68597V10.926ZM10.694 4.10397V5.18397H7.47198C7.57999 4.85997 7.70597 4.48197 7.81396 4.10397H10.694ZM11.828 5.18397V3.32997H8.04797C8.13797 3.04197 8.20998 2.73597 8.28198 2.46597L7.14801 2.32197C7.07601 2.64597 6.98599 2.98797 6.87799 3.32997H4.28601V4.10397H6.64398C6.51798 4.48197 6.41 4.85997 6.284 5.18397H3.20599V5.99397H13.52V5.18397H11.828ZM2.14398 14.598V2.14197H14.492V14.598H2.14398ZM0.865967 0.917969V16.56H2.14398V15.804H14.492V16.56H15.806V0.917969H0.865967Z" fill="#FAF9F9" data-name="圍" class="_285" transform="translate(160.86 0.92)"/>
		<path d="M16 2.73604V1.69204H4.73199C4.92999 1.29604 5.11 0.900043 5.272 0.486043L3.90399 0.144043C3.07599 2.26804 1.654 4.32004 0.052002 5.63404C0.394002 5.81404 0.987996 6.22804 1.258 6.46204C2.302 5.50804 3.30998 4.19404 4.15598 2.73604H16ZM14.596 4.78804V3.76204H3.90399V4.78804H14.596ZM4.84 7.95604V8.96404H8.224C8.602 9.68404 9.10598 10.35 9.69998 10.944H2.73398C3.45398 10.206 4.08399 9.36004 4.51599 8.42404L3.34598 8.13604C2.69798 9.48604 1.49199 10.692 0.123993 11.484C0.411993 11.664 0.897983 12.06 1.11398 12.276C1.52798 12.006 1.92398 11.682 2.31998 11.34V11.97H4.58798C4.22798 13.68 3.36399 14.922 0.93399 15.588C1.18599 15.822 1.52799 16.29 1.65399 16.578C4.42599 15.714 5.41599 14.166 5.82999 11.97H8.47598C8.36798 14.22 8.26 15.102 8.026 15.354C7.9 15.48 7.774 15.498 7.504 15.48C7.252 15.498 6.56799 15.48 5.82999 15.444C6.00999 15.714 6.11799 16.182 6.15399 16.524C6.92799 16.56 7.68398 16.56 8.06198 16.524C8.51198 16.506 8.782 16.38 9.052 16.092C9.448 15.66 9.57398 14.508 9.69998 11.43C9.69998 11.286 9.71799 11.052 9.71799 10.962C10.222 11.466 10.762 11.898 11.32 12.24C11.5 11.97 11.932 11.574 12.22 11.376C10.906 10.728 9.60999 9.39604 9.01599 7.95604H4.84ZM1.94199 5.79604V6.87604H12.166C12.328 12.402 12.778 16.56 15.118 16.56C16.18 16.56 16.468 15.696 16.576 13.392C16.306 13.23 15.928 12.906 15.676 12.618C15.64 14.202 15.532 15.264 15.208 15.264C13.894 15.264 13.534 10.656 13.48 5.79604H1.94199Z" fill="#FAF9F9" data-name="氛" transform="translate(128.05 0.15)"/>
		<path d="M0 0.452023V1.91002H16.344V0.452023H0Z" fill="#FAF9F9" data-name="一" transform="translate(0 7.45)"/>
		<path d="M15.2601 9.19804C16.7361 9.19804 17.1321 8.53204 17.3121 6.13804C16.9161 6.03004 16.3761 5.81404 16.0701 5.58004C15.9801 7.57804 15.8721 7.92004 15.1521 7.92004H12.3441C11.5161 7.92004 11.3901 7.79404 11.3901 7.18204V4.89604C13.1541 4.35604 15.0441 3.67204 16.4481 2.91604L15.3861 1.89004C14.4321 2.50204 12.9021 3.16804 11.3901 3.70804V0.144043H10.0581V7.18204C10.0581 8.74804 10.5081 9.19804 12.2001 9.19804H15.2601ZM3.25409 12.186H15.3141V10.908H3.25409V12.186ZM9.23007 7.47004L6.31409 7.79404V4.44604H9.1041V3.22204H6.31409V0.144043H5.00009V7.95604L3.41609 8.15404V2.10604H2.17409V8.29804L0.986084 8.42404L1.14809 9.72004C3.29009 9.46804 6.35008 9.07204 9.24808 8.67604L9.23007 7.47004ZM1.25609 16.128H17.1141V14.814H1.25609V16.128Z" fill="#FAF9F9" data-name="些" transform="translate(31.98 0.15)"/>
		<path d="M1.5361 14.328V11.664H11.1301V14.328H1.5361ZM11.1301 7.79403V10.404H1.5361V7.79403H11.1301ZM11.1301 3.85203V6.53403H1.5361V3.85203H11.1301ZM6.05411 2.57403C6.36011 1.89003 6.6841 1.08003 6.9541 0.306033L5.4241 0.108032C5.2801 0.810033 4.99211 1.78203 4.72211 2.57403H0.204102V16.596H1.5361V15.588H11.1301V16.506H12.5161V2.57403H6.05411Z" fill="#FAF9F9" data-name="自" transform="translate(66.2 0.11)"/>
		<path d="M17.086 2.898C16.708 2.196 15.826 1.17 15.052 0.432L14.0981 0.972001C14.8361 1.746 15.7 2.826 16.078 3.528L17.086 2.898ZM2.47003 16.578C3.40603 15.714 4.18006 14.292 4.59406 12.96L3.35205 12.654C2.92005 13.932 2.12803 15.3 1.24603 16.056L2.47003 16.578ZM3.08203 5.706C3.42403 5.31 3.73004 4.878 4.03604 4.446C5.02604 4.968 6.10604 5.634 6.79004 6.156C6.52004 6.696 6.21405 7.182 5.89005 7.632C5.17004 7.02 4.09003 6.282 3.08203 5.706ZM8.05005 2.844C7.83405 3.69 7.58206 4.464 7.25806 5.184C6.55606 4.68 5.49404 4.086 4.55804 3.618C4.72004 3.366 4.86406 3.114 5.00806 2.844H8.05005ZM8.75204 1.674L8.50003 1.728H5.58405C5.80005 1.26 5.99803 0.792001 6.16003 0.342L4.88205 0C4.16205 2.196 2.63205 4.77 0.706055 6.354C0.958055 6.57 1.39005 6.948 1.62405 7.2C1.89405 6.966 2.14604 6.732 2.39804 6.462C3.40604 7.092 4.50404 7.902 5.17004 8.514C4.07204 9.756 2.77603 10.692 1.33603 11.358C1.62403 11.574 2.09203 12.078 2.27203 12.384C5.67403 10.692 8.46405 7.398 9.58005 2.034L8.75204 1.674ZM6.50204 13.104C6.71805 14.184 6.86204 15.57 6.88004 16.398L8.15805 16.218C8.14005 15.408 7.94204 14.04 7.72604 12.978L6.50204 13.104ZM10.138 13.122C10.588 14.184 11.0561 15.57 11.2361 16.416L12.532 16.146C12.352 15.3 11.866 13.914 11.38 12.888L10.138 13.122ZM13.81 12.996C14.71 14.112 15.7181 15.642 16.1501 16.596L17.4821 16.11C16.9961 15.138 15.9341 13.662 15.0341 12.582L13.81 12.996ZM17.1581 5.202V3.942H13.45V3.816V0.342H12.19V3.816V3.942H9.27405V5.202H12.118C11.884 7.254 10.948 9.486 7.74405 11.16C8.05005 11.412 8.46405 11.808 8.68005 12.096C11.2541 10.728 12.46 8.982 13.018 7.2C13.774 9.45 14.9621 11.178 16.7621 12.222C16.9601 11.862 17.374 11.358 17.662 11.088C15.556 10.062 14.332 7.92 13.666 5.202H17.1581Z" fill="#FAF9F9" data-name="然" transform="translate(95.7 0)"/>
	</g>
	<g transform="translate(-3 38)" clip-path="url(#clip_1_967)" width="3" height="3" data-name="Frame 12">
	</g>
</g>
<defs><clipPath id="clip_0_844"><rect width="511" height="82"/></clipPath><clipPath id="clip_1_967"><rect width="3" height="3"/></clipPath>
</defs>
</svg>