<svg width="28" height="622" viewBox="0 0 28 622" fill="none" xmlns="http://www.w3.org/2000/svg" xmlns:xlink="http://www.w3.org/1999/xlink">
<style>.Group_8_389 {
	animation: 7s linear NaNs 1 normal forwards running Group_8_389;
		transform: translateX(0px) translateY(5.85px);animation-iteration-count: infinite;
}
@keyframes Group_8_389 {
	0% {
		transform: translateX(0px) translateY(5.85px);
	}
	100% {
		transform: translateX(0px) translateY(5.85px);
	}
	NaN% {
		transform: translateX(0px) translateY(5.85px);
	}
	98.57% {
		transform: translateX(0px) translateY(5.85px);
	}
}.Rectangle_4_347 {
	animation: 7s linear 0s 1 normal forwards running Rectangle_4_347;
		transform: translateX(0px) translateY(616.15px);animation-iteration-count: infinite;
}
@keyframes Rectangle_4_347 {
	0% {
		transform: translateX(0px) translateY(616.15px);
	}
	52.86% {
		transform: translateX(0px) translateY(346.15px);
	}
	100% {
		transform: translateX(0px) translateY(346.15px);
	}
}.Have_a_Nice_Day_75 {
	animation: 7s linear 0s 1 normal forwards running Have_a_Nice_Day_75;
		opacity: 0;animation-iteration-count: infinite;
}
@keyframes Have_a_Nice_Day_75 {
	0% {
		opacity: 0;
	}
	17.14% {
		opacity: 0;
	}
	47.14% {
		opacity: 1;
	}
	100% {
		opacity: 1;
	}
}
</style>
<g clip-path="url(#clip_0_847)" width="28" height="622" data-name="Frame 14">
	<rect width="28" height="622" data-name="Frame 14"/>
	<g transform="translate(0 5.85)" class="Group_8_389" width="28" height="623.73" data-name="Group 8">
		<rect width="28" height="270" fill="#3E4A3C" data-name="Rectangle 4" class="Rectangle_4_347"/>
		<path d="M8.85652 19H8.04452V14.128H2.34652V19H1.53452V9.004H2.34652V13.4H8.04452V9.004H8.85652V19ZM29.8094 11.426C30.6494 11.426 31.2747 11.6313 31.6854 12.042C32.096 12.4527 32.3014 13.1013 32.3014 13.988V19H31.6994L31.5594 17.74H31.5174C31.2467 18.16 30.9154 18.5007 30.5234 18.762C30.1407 19.014 29.604 19.14 28.9134 19.14C28.1947 19.14 27.63 18.9627 27.2194 18.608C26.8087 18.244 26.6034 17.726 26.6034 17.054C26.6034 16.3073 26.9067 15.7427 27.5134 15.36C28.12 14.968 29.002 14.7487 30.1594 14.702L31.5174 14.632V14.114C31.5174 13.386 31.368 12.868 31.0694 12.56C30.78 12.252 30.3507 12.098 29.7814 12.098C29.3987 12.098 29.03 12.1493 28.6754 12.252C28.3207 12.3547 27.966 12.49 27.6114 12.658L27.3594 12.014C27.714 11.846 28.0967 11.706 28.5074 11.594C28.9274 11.482 29.3614 11.426 29.8094 11.426ZM30.2574 15.29C29.3054 15.3367 28.596 15.5047 28.1294 15.794C27.672 16.074 27.4434 16.494 27.4434 17.054C27.4434 17.5207 27.5834 17.8753 27.8634 18.118C28.1527 18.3513 28.5494 18.468 29.0534 18.468C29.828 18.468 30.43 18.2487 30.8594 17.81C31.2887 17.362 31.508 16.746 31.5174 15.962V15.234L30.2574 15.29ZM51.9872 19L49.1312 11.552H49.9852L51.8332 16.494C51.9452 16.802 52.0479 17.1053 52.1412 17.404C52.2439 17.7027 52.3279 17.9687 52.3932 18.202H52.4352C52.5006 17.9687 52.5846 17.7027 52.6872 17.404C52.7899 17.096 52.8972 16.7927 53.0092 16.494L54.8572 11.552H55.6972L52.8412 19H51.9872ZM75.4337 11.412C76.0684 11.412 76.5957 11.5613 77.0157 11.86C77.4451 12.1493 77.7671 12.5507 77.9817 13.064C78.2057 13.5773 78.3177 14.1653 78.3177 14.828V15.374H72.9977C72.9977 16.3633 73.2264 17.124 73.6837 17.656C74.1504 18.1787 74.8131 18.44 75.6717 18.44C76.1291 18.44 76.5304 18.4027 76.8757 18.328C77.2211 18.244 77.5991 18.1133 78.0097 17.936V18.664C77.6364 18.832 77.2677 18.9533 76.9037 19.028C76.5397 19.1027 76.1197 19.14 75.6437 19.14C74.5237 19.14 73.6651 18.7993 73.0677 18.118C72.4704 17.4367 72.1717 16.508 72.1717 15.332C72.1717 14.576 72.2977 13.904 72.5497 13.316C72.8111 12.728 73.1844 12.266 73.6697 11.93C74.1551 11.5847 74.7431 11.412 75.4337 11.412ZM75.4197 12.084C74.7384 12.084 74.1831 12.3127 73.7537 12.77C73.3337 13.2273 73.0911 13.876 73.0257 14.716H77.4917C77.4917 13.932 77.3191 13.2973 76.9737 12.812C76.6377 12.3267 76.1197 12.084 75.4197 12.084ZM117.959 11.426C118.799 11.426 119.424 11.6313 119.835 12.042C120.246 12.4527 120.451 13.1013 120.451 13.988V19H119.849L119.709 17.74H119.667C119.396 18.16 119.065 18.5007 118.673 18.762C118.29 19.014 117.754 19.14 117.063 19.14C116.344 19.14 115.78 18.9627 115.369 18.608C114.958 18.244 114.753 17.726 114.753 17.054C114.753 16.3073 115.056 15.7427 115.663 15.36C116.27 14.968 117.152 14.7487 118.309 14.702L119.667 14.632V14.114C119.667 13.386 119.518 12.868 119.219 12.56C118.93 12.252 118.5 12.098 117.931 12.098C117.548 12.098 117.18 12.1493 116.825 12.252C116.47 12.3547 116.116 12.49 115.761 12.658L115.509 12.014C115.864 11.846 116.246 11.706 116.657 11.594C117.077 11.482 117.511 11.426 117.959 11.426ZM118.407 15.29C117.455 15.3367 116.746 15.5047 116.279 15.794C115.822 16.074 115.593 16.494 115.593 17.054C115.593 17.5207 115.733 17.8753 116.013 18.118C116.302 18.3513 116.699 18.468 117.203 18.468C117.978 18.468 118.58 18.2487 119.009 17.81C119.438 17.362 119.658 16.746 119.667 15.962V15.234L118.407 15.29ZM165.404 19H164.536L158.74 10.264H158.698C158.716 10.628 158.73 11.0153 158.74 11.426C158.758 11.8273 158.768 12.2473 158.768 12.686V19H157.998V9.004H158.866L164.648 17.712H164.69C164.671 17.4227 164.657 17.054 164.648 16.606C164.638 16.158 164.634 15.738 164.634 15.346V9.004H165.404V19ZM184.115 8.794C184.479 8.794 184.661 8.99467 184.661 9.396C184.661 9.80667 184.479 10.012 184.115 10.012C183.751 10.012 183.569 9.80667 183.569 9.396C183.569 8.99467 183.751 8.794 184.115 8.794ZM184.507 11.552V19H183.709V11.552H184.507ZM205.638 19.14C204.546 19.14 203.702 18.804 203.104 18.132C202.516 17.46 202.222 16.522 202.222 15.318C202.222 14.478 202.372 13.7687 202.67 13.19C202.969 12.6113 203.384 12.1727 203.916 11.874C204.458 11.566 205.088 11.412 205.806 11.412C206.161 11.412 206.497 11.4447 206.814 11.51C207.132 11.5753 207.412 11.664 207.654 11.776L207.43 12.462C207.178 12.3593 206.908 12.28 206.618 12.224C206.329 12.1587 206.054 12.126 205.792 12.126C204.906 12.126 204.224 12.4107 203.748 12.98C203.282 13.5493 203.048 14.324 203.048 15.304C203.048 16.2373 203.258 16.9933 203.678 17.572C204.098 18.1413 204.752 18.426 205.638 18.426C206.002 18.426 206.348 18.3887 206.674 18.314C207.001 18.2393 207.295 18.146 207.556 18.034V18.748C207.314 18.8693 207.034 18.9627 206.716 19.028C206.408 19.1027 206.049 19.14 205.638 19.14ZM227.823 11.412C228.457 11.412 228.985 11.5613 229.405 11.86C229.834 12.1493 230.156 12.5507 230.371 13.064C230.595 13.5773 230.707 14.1653 230.707 14.828V15.374H225.387C225.387 16.3633 225.615 17.124 226.073 17.656C226.539 18.1787 227.202 18.44 228.061 18.44C228.518 18.44 228.919 18.4027 229.265 18.328C229.61 18.244 229.988 18.1133 230.399 17.936V18.664C230.025 18.832 229.657 18.9533 229.293 19.028C228.929 19.1027 228.509 19.14 228.033 19.14C226.913 19.14 226.054 18.7993 225.457 18.118C224.859 17.4367 224.561 16.508 224.561 15.332C224.561 14.576 224.687 13.904 224.939 13.316C225.2 12.728 225.573 12.266 226.059 11.93C226.544 11.5847 227.132 11.412 227.823 11.412ZM227.809 12.084C227.127 12.084 226.572 12.3127 226.143 12.77C225.723 13.2273 225.48 13.876 225.415 14.716H229.881C229.881 13.932 229.708 13.2973 229.363 12.812C229.027 12.3267 228.509 12.084 227.809 12.084ZM275.57 13.904C275.57 15.584 275.122 16.8533 274.226 17.712C273.339 18.5707 272.051 19 270.362 19H267.884V9.004H270.67C272.247 9.004 273.456 9.424 274.296 10.264C275.145 11.0947 275.57 12.308 275.57 13.904ZM274.716 13.932C274.716 11.1227 273.311 9.718 270.502 9.718H268.696V18.286H270.292C273.241 18.286 274.716 16.8347 274.716 13.932ZM295.981 11.426C296.821 11.426 297.446 11.6313 297.857 12.042C298.268 12.4527 298.473 13.1013 298.473 13.988V19H297.871L297.731 17.74H297.689C297.418 18.16 297.087 18.5007 296.695 18.762C296.312 19.014 295.776 19.14 295.085 19.14C294.366 19.14 293.802 18.9627 293.391 18.608C292.98 18.244 292.775 17.726 292.775 17.054C292.775 16.3073 293.078 15.7427 293.685 15.36C294.292 14.968 295.174 14.7487 296.331 14.702L297.689 14.632V14.114C297.689 13.386 297.54 12.868 297.241 12.56C296.952 12.252 296.522 12.098 295.953 12.098C295.57 12.098 295.202 12.1493 294.847 12.252C294.492 12.3547 294.138 12.49 293.783 12.658L293.531 12.014C293.886 11.846 294.268 11.706 294.679 11.594C295.099 11.482 295.533 11.426 295.981 11.426ZM296.429 15.29C295.477 15.3367 294.768 15.5047 294.301 15.794C293.844 16.074 293.615 16.494 293.615 17.054C293.615 17.5207 293.755 17.8753 294.035 18.118C294.324 18.3513 294.721 18.468 295.225 18.468C296 18.468 296.602 18.2487 297.031 17.81C297.46 17.362 297.68 16.746 297.689 15.962V15.234L296.429 15.29ZM315.317 11.552H316.157L317.935 16.172C318.084 16.592 318.215 16.9653 318.327 17.292C318.439 17.6093 318.528 17.894 318.593 18.146H318.635C318.775 17.6793 318.994 17.0307 319.293 16.2L321.029 11.552H321.883L318.523 20.316C318.271 20.9787 317.972 21.4873 317.627 21.842C317.282 22.1967 316.815 22.374 316.227 22.374C316.05 22.374 315.886 22.3647 315.737 22.346C315.597 22.3273 315.466 22.2947 315.345 22.248V21.576C315.457 21.6133 315.578 21.6413 315.709 21.66C315.84 21.688 315.98 21.702 316.129 21.702C316.521 21.702 316.838 21.5807 317.081 21.338C317.333 21.0953 317.557 20.722 317.753 20.218L318.229 18.972L315.317 11.552Z" fill="#3E4A3C" data-name="Have a Nice Day" class="Have_a_Nice_Day_75" transform="translate(28 0) rotate(90)"/>
	</g>
</g>
<defs><clipPath id="clip_0_847"><rect width="28" height="622"/></clipPath>
</defs>
</svg>