<?xml version="1.0" encoding="utf-8"?>
<!-- Generator: Adobe Illustrator 18.1.1, SVG Export Plug-In . SVG Version: 6.00 Build 0)  -->
<svg version="1.1" id="圖層_1" xmlns="http://www.w3.org/2000/svg" xmlns:xlink="http://www.w3.org/1999/xlink" x="0px" y="0px"
	 viewBox="-50 356 511 45.9" enable-background="new -50 356 511 45.9" xml:space="preserve">
<g>
	<defs>
		<rect id="SVGID_1_" x="-50" y="356" width="511" height="40"/>
	</defs>
	<clipPath id="SVGID_2_">
		<use xlink:href="#SVGID_1_"  overflow="visible"/>
	</clipPath>
	<g clip-path="url(#SVGID_2_)">
		<rect x="-50" y="356" fill="none" width="511" height="82"/>
		<path fill="#FAF9F9" d="M437.3,378v10.3c0,1.1,0.1,2,0.2,2.7c0.2,0.6,0.5,1.1,0.9,1.4c0.4,0.3,1.1,0.5,1.9,0.6
			c0.8,0.1,2,0.1,3.4,0.1c1.7,0,3.3-0.3,4.6-0.8c1.4-0.5,2.7-1.3,3.9-2.3c1.2-1,2.5-2.4,4-4.1h1.9l-2.9,8.5h-28.9V393
			c1.4,0,2.4-0.1,3.2-0.4c0.7-0.2,1.3-0.6,1.5-1.1c0.3-0.5,0.5-1.2,0.5-2.1v-23.2c0-1.1-0.1-1.9-0.4-2.4s-0.8-0.8-1.4-1
			c-0.7-0.2-1.8-0.3-3.3-0.4v-1.3H454l2.8,7.5h-1.7c-0.9-1.1-2-2.2-3.3-3.1c-1.3-0.9-2.8-1.7-4.4-2.3c-1.6-0.6-3.3-0.8-5.1-0.8
			c-1.4,0-2.5,0.2-3.2,0.5c-0.7,0.3-1.2,0.7-1.4,1.3c-0.2,0.5-0.4,1.3-0.4,2.2v10.2h4.7c4.1,0,6.2-1.9,6.2-5.6h1.6v12.4h-1.5
			c-0.2-1.9-0.7-3.3-1.6-4.1c-0.9-0.9-2.2-1.3-4-1.3H437.3z M452.8,393l1.6-4.1c-0.9,1-1.8,1.8-2.5,2.3c-0.8,0.5-1.8,1.1-3.2,1.8
			H452.8z M448,379.5v-4.6c-0.6,1-1.7,1.8-3.3,2.3c0.9,0.2,1.5,0.5,2,0.8C447.2,378.4,447.6,378.9,448,379.5z M451.8,362.6h-4.2
			c1.2,0.4,2.2,0.9,3.1,1.4c0.9,0.5,1.9,1.2,2.9,2L451.8,362.6z M432.2,366.5v22.7c0,1.1-0.1,2-0.4,2.5c-0.3,0.5-0.7,1-1.2,1.3
			c1.3,0,2.1-0.4,2.5-1c0.4-0.7,0.6-1.8,0.6-3.2v-22.7c0-1.3-0.2-2.2-0.7-2.6c-0.5-0.4-1.3-0.7-2.4-0.7c0.6,0.3,1,0.7,1.2,1.3
			C432.1,364.6,432.2,365.4,432.2,366.5z"/>
		<path fill="#FAF9F9" d="M383.8,362.6v-1.3H400v1.3h-0.7c-1.2,0-2.2,0.1-2.8,0.3c-0.6,0.2-1.1,0.6-1.4,1.2
			c-0.3,0.6-0.4,1.4-0.4,2.5v22.9c0,0.9,0.1,1.6,0.4,2.1c0.3,0.5,0.9,0.8,1.7,1.1c0.8,0.2,1.9,0.4,3.4,0.4c1.2,0,2.4-0.1,3.4-0.3
			c1-0.2,2.1-0.6,3.1-1.1c1-0.5,2.1-1.3,3.1-2.2s2.2-2.1,3.3-3.6h2.2l-3.1,8.4h-28.4V393h0.3c1.4,0,2.4-0.1,3.1-0.4
			c0.7-0.3,1.1-0.7,1.4-1.2c0.3-0.6,0.4-1.3,0.4-2.3v-22.2c0-1.2-0.1-2.1-0.3-2.6c-0.2-0.6-0.7-1-1.4-1.3
			C386.4,362.7,385.3,362.6,383.8,362.6z M389.7,366.2v24c0,0.8-0.1,1.4-0.4,1.8c-0.3,0.4-0.7,0.8-1.2,1.1c0.1,0,0.2,0,0.4,0
			c0.2,0,0.3,0,0.4,0c1.6,0,2.4-1.1,2.4-3.4v-22.5c0-1.6-0.1-2.8-0.4-3.5c-0.2-0.8-0.9-1.1-2.1-1.1H388c0.6,0.4,1.1,0.8,1.3,1.2
			S389.7,365,389.7,366.2z M405.6,393h4.3l2-4.6c-0.9,1.1-1.8,2-2.9,2.7C408,391.9,406.8,392.5,405.6,393z"/>
		<path fill="#FAF9F9" d="M294.1,361.3h29.8l1.7,7.7h-1.7c-1.2-2-2.5-3.5-3.8-4.4s-2.6-1.5-3.7-1.7c-1.2-0.2-2.7-0.3-4.5-0.3v26.6
			c0,1,0.2,1.8,0.5,2.4c0.3,0.5,0.9,0.9,1.6,1.1c0.8,0.2,1.8,0.3,3.1,0.4v1.3h-16.4V393c1.4,0,2.4-0.1,3.1-0.3
			c0.7-0.2,1.3-0.6,1.6-1.1c0.4-0.6,0.6-1.5,0.6-2.7v-26.4c-1.7,0-3.2,0.2-4.4,0.5c-1.3,0.3-2.3,0.7-3.1,1.3s-1.5,1.1-2.1,1.8
			c-0.5,0.6-1.4,1.6-2.4,2.9h-1.4L294.1,361.3z M322.9,366.3l-1.1-3.8h-4.4c1.2,0.4,2.2,0.9,3,1.5
			C321.2,364.6,322,365.4,322.9,366.3z M308.2,388.4v-23c0-0.9-0.1-1.6-0.3-2c-0.2-0.5-0.6-0.7-1.2-0.8v26.6c0,1-0.1,1.7-0.4,2.3
			c-0.2,0.6-0.7,1.1-1.3,1.5h0.5c1.1,0,1.9-0.4,2.2-1.1C308.1,391.2,308.2,390.1,308.2,388.4z M298.4,362.6h-3.8l-0.9,4
			c0.8-1,1.5-1.8,2.1-2.3C296.4,363.7,297.3,363.1,298.4,362.6z"/>
		<path fill="#FAF9F9" d="M199.2,378v10.3c0,1.1,0.1,2,0.2,2.7c0.2,0.6,0.5,1.1,0.9,1.4c0.4,0.3,1.1,0.5,1.9,0.6
			c0.8,0.1,2,0.1,3.4,0.1c1.7,0,3.3-0.3,4.6-0.8c1.4-0.5,2.7-1.3,3.9-2.3c1.2-1,2.5-2.4,4-4.1h1.9l-2.9,8.5h-28.9V393
			c1.4,0,2.4-0.1,3.2-0.4c0.7-0.2,1.3-0.6,1.5-1.1c0.3-0.5,0.5-1.2,0.5-2.1v-23.2c0-1.1-0.1-1.9-0.4-2.4s-0.8-0.8-1.4-1
			c-0.7-0.2-1.8-0.3-3.3-0.4v-1.3h27.7l2.8,7.5H217c-0.9-1.1-2-2.2-3.3-3.1c-1.3-0.9-2.8-1.7-4.4-2.3c-1.6-0.6-3.3-0.8-5.1-0.8
			c-1.4,0-2.5,0.2-3.2,0.5c-0.7,0.3-1.2,0.7-1.4,1.3s-0.4,1.3-0.4,2.2v10.2h4.7c4.1,0,6.2-1.9,6.2-5.6h1.6v12.4h-1.5
			c-0.2-1.9-0.7-3.3-1.6-4.1c-0.9-0.9-2.2-1.3-4-1.3H199.2z M214.7,393l1.6-4.1c-0.9,1-1.8,1.8-2.5,2.3c-0.8,0.5-1.8,1.1-3.2,1.8
			H214.7z M209.9,379.5v-4.6c-0.6,1-1.7,1.8-3.3,2.3c0.9,0.2,1.5,0.5,2,0.8C209.1,378.4,209.5,378.9,209.9,379.5z M213.7,362.6h-4.2
			c1.2,0.4,2.2,0.9,3.1,1.4c0.9,0.5,1.9,1.2,2.9,2L213.7,362.6z M194.1,366.5v22.7c0,1.1-0.1,2-0.4,2.5c-0.3,0.5-0.7,1-1.2,1.3
			c1.3,0,2.1-0.4,2.5-1c0.4-0.7,0.6-1.8,0.6-3.2v-22.7c0-1.3-0.2-2.2-0.7-2.6c-0.5-0.4-1.3-0.7-2.4-0.7c0.6,0.3,1,0.7,1.2,1.3
			C194,364.6,194.1,365.4,194.1,366.5z"/>
		<path fill="#FAF9F9" d="M157.7,394.3h-16.2V393c1.5,0,2.6-0.1,3.4-0.4c0.7-0.2,1.2-0.6,1.5-1.1c0.3-0.5,0.4-1.4,0.4-2.6v-21.9
			c0-1.3-0.1-2.2-0.4-2.8s-0.7-1-1.5-1.3c-0.7-0.3-1.9-0.4-3.5-0.4v-1.3h18.5c2.3,0,4.4,0.4,6.1,1.2c1.8,0.8,3.1,1.9,3.9,3.2
			c0.9,1.3,1.3,2.8,1.3,4.3c0,1-0.2,2-0.6,3c-0.4,1-1,1.8-1.8,2.6c-0.8,0.8-1.7,1.5-2.8,2c-1.1,0.5-2.3,0.9-3.8,1.2
			c1.1,1.1,2.4,2.6,4,4.6l2.3,2.7c0.1,0.1,0.3,0.3,0.5,0.5c0.2,0.2,0.4,0.5,0.7,0.8c0.8,0.9,1.4,1.7,1.9,2.3c0.5,0.6,1,1.1,1.5,1.6
			c0.5,0.5,1,0.9,1.5,1.1c0.5,0.3,1,0.5,1.5,0.7v1.3h-4.4c-1,0-1.9-0.2-2.8-0.7c-0.9-0.5-1.8-1.1-2.6-1.9c-0.8-0.8-1.7-1.9-2.8-3.2
			l-3.3-4.2c-1.5-2-2.6-3.3-3.4-4.1c-0.7-0.8-1.4-1.1-1.9-1.1h-2.6v9.9c0,1,0.1,1.8,0.4,2.3s0.8,1,1.6,1.2c0.5,0.1,1,0.2,1.7,0.3
			c0.7,0.1,1.1,0.1,1.5,0.1V394.3z M147.5,366.9V390c0,1.5-0.5,2.5-1.6,3c2,0,3.1-0.8,3.1-2.4V367c0-1.2-0.1-2.1-0.2-2.7
			c-0.1-0.6-0.4-1.1-0.9-1.4c-0.5-0.3-1.2-0.4-2.2-0.4c0.8,0.4,1.3,0.8,1.5,1.4C147.4,364.6,147.5,365.5,147.5,366.9z M152.5,367.3
			v10.6h3.8c1.3,0,2.5-0.2,3.8-0.6c1.3-0.4,2.2-0.9,2.8-1.6c1.3-1.2,1.9-3,1.9-5.5c0-2.9-1-5.1-3-6.4c-0.7-0.5-1.4-0.8-2.2-1
			c-0.8-0.2-1.7-0.2-2.9-0.2c-1.2,0-2.1,0.2-2.7,0.5c-0.6,0.3-1,0.8-1.2,1.5C152.6,365.1,152.5,366.1,152.5,367.3z M158.6,379.2
			h-1.9c0.6,0.4,1.2,1.1,1.9,1.9c0.8,0.8,1.7,2,2.8,3.4s2.3,2.9,3.4,4.4c1,1.3,2,2.4,2.9,3.1c0.9,0.7,1.7,1.2,2.4,1.4
			c0.7,0.2,1.4,0.3,2.2,0.4c-1-0.5-1.9-1.1-2.8-1.9c-0.9-0.8-1.9-1.9-2.9-3.1c-1-1.3-2.1-2.6-3.2-4c-1.1-1.4-2.2-2.7-3.4-3.9
			c-0.2-0.2-0.4-0.5-0.6-0.7C159.3,379.7,159,379.4,158.6,379.2z M160.7,377.8c2.1-0.3,3.7-1,4.8-2.3c1.1-1.3,1.7-3.1,1.7-5.3
			c0-2.2-0.5-3.9-1.5-5.1c-1-1.3-2.4-2.1-4.3-2.3c1.4,0.7,2.5,1.7,3.1,2.9c0.7,1.2,1.1,2.8,1.1,4.8c0,2.1-0.4,3.7-1.2,4.8
			C163.6,376.3,162.3,377.1,160.7,377.8z"/>
		<path fill="#FAF9F9" d="M-23.3,362.6v-1.3h12.5v1.3c-1,0-2,0.3-2.8,0.7c-0.8,0.4-1.4,1.1-1.9,1.9c-0.5,0.8-0.7,1.8-0.7,3l0.4,26.9
			H-17l-24-28l0.4,18.8c0,1.2,0.1,2.2,0.3,3c0.2,0.8,0.4,1.5,0.8,2.1c0.4,0.6,1,1.1,1.7,1.4c0.8,0.3,1.8,0.6,3,0.7v1.3h-12.4V393
			c1.6-0.1,2.8-0.6,3.6-1.3c0.8-0.8,1.3-1.7,1.5-2.8c0.2-1.1,0.3-2.5,0.2-4.2l-0.3-19.2c-0.9-1-1.8-1.7-2.6-2.2
			c-0.8-0.5-1.7-0.8-2.6-0.8h-0.3v-1.3h9.7l21.1,24.6l-0.3-16.5c0-1.3-0.1-2.3-0.4-3.2c-0.3-0.9-0.7-1.6-1.3-2.2
			c-0.4-0.4-1.1-0.8-1.9-1.1C-21.8,362.7-22.5,362.5-23.3,362.6z M-15.1,362.6h-5.1c0.8,0.3,1.4,0.6,1.9,1.1
			c0.5,0.5,0.9,1.1,1.3,1.9C-16.7,364.2-16,363.2-15.1,362.6z M-18.8,389.4l-21.1-24.6c-0.4-0.6-1-1.1-1.6-1.5
			c-0.6-0.5-1.4-0.7-2.5-0.7H-45c0.9,0.3,1.6,0.7,2,1.1c0.5,0.4,1.2,1.2,2,2.2l24.1,28c0-0.5,0-0.9-0.1-1.3c0-0.4-0.1-0.8-0.1-1
			c-0.1-0.2-0.2-0.5-0.4-0.8C-17.8,390.6-18.2,390.1-18.8,389.4z M-44.4,393h4.9c-0.7-0.5-1.2-1-1.5-1.5c-0.3-0.5-0.5-1.1-0.7-1.9
			c-0.2,0.7-0.5,1.4-0.9,1.9C-43,392.1-43.6,392.6-44.4,393z"/>
		<path fill="#FAF9F9" d="M24,388.2l-2.6-6.7H10.3l-1.5,4c-0.4,1-0.6,2.1-0.6,3.2c0,1,0.3,2,1,2.8c0.7,0.8,1.6,1.2,2.8,1.3v1.3H1
			v-1.3c2.4-0.4,4.4-2.4,5.9-6.3l8.1-20.8c-0.4-0.7-0.9-1.2-1.3-1.5c-0.5-0.3-1.2-0.4-2.1-0.5v-1.1l5.6-1.9h2.2l10.9,27.7
			c0.6,1.6,1.3,2.6,1.9,3.2c0.6,0.5,1.6,1,2.9,1.2v1.3H21.1v-1.3c1.2-0.1,2.1-0.3,2.7-0.6c0.6-0.3,0.9-0.7,0.9-1.5
			C24.7,390.1,24.4,389.3,24,388.2z M10.8,380h9.9l-5-12.6L10.8,380z M26.1,387.4l-8.4-21.2c-0.4-1.1-0.8-1.8-1.3-2.3
			c-0.4-0.5-1-0.7-1.8-0.7c-0.5,0-0.8,0-1.1,0.1c0.8,0.3,1.3,0.7,1.7,1.2c0.4,0.5,0.8,1.2,1.1,2.1l8.3,21.2c0.5,1.3,0.8,2.2,0.8,2.9
			c0,0.5-0.1,0.8-0.3,1c-0.2,0.2-0.5,0.5-1,0.9h0.5c0.7,0,1.3-0.2,1.7-0.6c0.4-0.4,0.6-0.9,0.6-1.4C27,390,26.7,388.9,26.1,387.4z
			 M3.6,392.7h4.5c-1-0.8-1.5-1.7-1.5-2.9c0-0.3,0-0.6,0-0.8c-0.4,0.8-0.9,1.4-1.3,2C4.9,391.6,4.3,392.2,3.6,392.7z"/>
		<path fill="#FAF9F9" d="M47.9,361.3h29.8l1.7,7.7h-1.7c-1.2-2-2.5-3.5-3.8-4.4s-2.6-1.5-3.7-1.7c-1.2-0.2-2.7-0.3-4.5-0.3v26.6
			c0,1,0.2,1.8,0.5,2.4c0.3,0.5,0.9,0.9,1.6,1.1c0.8,0.2,1.8,0.3,3.1,0.4v1.3H54.4V393c1.4,0,2.4-0.1,3.1-0.3
			c0.7-0.2,1.3-0.6,1.6-1.1c0.4-0.6,0.6-1.5,0.6-2.7v-26.4c-1.7,0-3.2,0.2-4.4,0.5c-1.3,0.3-2.3,0.7-3.1,1.3s-1.5,1.1-2.1,1.8
			c-0.5,0.6-1.4,1.6-2.4,2.9h-1.4L47.9,361.3z M76.7,366.3l-1.1-3.8h-4.4c1.2,0.4,2.2,0.9,3,1.5C75,364.6,75.8,365.4,76.7,366.3z
			 M62,388.4v-23c0-0.9-0.1-1.6-0.3-2c-0.2-0.5-0.6-0.7-1.2-0.8v26.6c0,1-0.1,1.7-0.4,2.3c-0.2,0.6-0.7,1.1-1.3,1.5h0.5
			c1.1,0,1.9-0.4,2.2-1.1C61.9,391.2,62,390.1,62,388.4z M52.2,362.6h-3.8l-0.9,4c0.8-1,1.5-1.8,2.1-2.3
			C50.2,363.7,51.1,363.1,52.2,362.6z"/>
		<path fill="#FAF9F9" d="M97.1,384.3v-17.9c0-1.2-0.2-2-0.5-2.5c-0.3-0.5-0.8-0.8-1.5-1c-0.6-0.1-1.7-0.3-3.2-0.4v-1.3h15.9v1.3
			c-1.3,0.1-2.2,0.2-2.8,0.4c-0.6,0.1-1.1,0.5-1.5,0.9c-0.3,0.5-0.5,1.3-0.5,2.3v18.6c0,1.7,0.4,3.2,1.1,4.5
			c0.8,1.3,1.9,2.2,3.3,2.8c1.4,0.6,3.1,1,5,1c2,0,3.7-0.4,5.2-1.1c1.5-0.7,2.7-1.8,3.5-3.3c0.8-1.5,1.3-3.3,1.3-5.4v-10.8
			c0-2.4-0.2-4.4-0.5-5.7c-0.4-1.4-1-2.4-1.8-3c-0.8-0.7-2-1-3.6-1.1v-1.3h12v1.3c-1.4,0.2-2.4,0.7-3.1,1.5
			c-0.7,0.8-1.1,1.8-1.4,3.1c-0.2,1.3-0.4,2.8-0.4,4.7v12.1c0,1.7-0.3,3.2-0.9,4.6c-0.6,1.4-1.5,2.5-2.7,3.5c-1.2,1-2.6,1.7-4.2,2.2
			c-1.6,0.5-3.5,0.8-5.6,0.8c-5,0-8.8-1.4-11.2-4.2c-0.7-0.9-1.3-1.9-1.5-2.9C97.2,386.9,97.1,385.7,97.1,384.3z M99.4,384.4v-18.7
			c0-2.3-1.1-3.4-3.3-3.1c1.2,0.5,1.8,1.6,1.8,3.4v18.7c0,2.7,0.8,4.8,2.3,6.3c1.6,1.5,3.9,2.6,7,3.3c-1.2-0.5-2.2-1-3.1-1.5
			c-0.8-0.5-1.6-1.1-2.4-1.9c-0.7-0.7-1.3-1.6-1.8-2.7C99.6,387,99.4,385.8,99.4,384.4z M124.5,362.6h-4.8c1.4,0.7,2.4,1.9,2.7,3.7
			c0.2-0.9,0.4-1.6,0.7-2.2C123.5,363.4,123.9,362.9,124.5,362.6z"/>
		<path fill="#FAF9F9" d="M256.1,381.8h1.5c0.9,2.5,1.9,4.5,3.1,6.2c1.2,1.7,2.5,2.9,4,3.7c1.4,0.8,2.9,1.2,4.5,1.2
			c2,0,3.6-0.6,5-1.8c1.4-1.2,2.1-2.8,2.1-4.7c0-1.8-0.5-3.2-1.4-4.1c-0.9-1-2-1.7-3.3-2.1c-1.3-0.4-3-0.8-5.1-1.1
			c-2.1-0.3-3.6-0.7-4.5-1c-1.4-0.5-2.5-1.1-3.5-1.9c-1-0.8-1.7-1.8-2.2-3c-0.5-1.2-0.7-2.4-0.7-3.7c0-1.3,0.2-2.5,0.7-3.6
			s1.1-2.2,1.9-3.1c0.8-0.9,1.8-1.6,2.9-2.1c1.2-0.5,2.4-0.8,3.8-0.8c1,0,2.3,0.1,3.7,0.4c1.5,0.3,2.6,0.4,3.2,0.4
			c0.8,0,1.6-0.2,2.4-0.6h1.8l1,9.6h-1.6c-1.5-2.9-3.1-5.1-4.8-6.6c-1.7-1.5-3.6-2.3-5.9-2.3c-1.1,0-2.2,0.3-3.1,0.8
			c-1,0.5-1.8,1.2-2.3,2.2c-0.6,0.9-0.9,1.9-0.9,3c0,1.6,0.5,2.8,1.6,3.6c1.1,0.8,2.6,1.5,4.7,1.9c2.1,0.4,4,0.8,5.6,1.1
			c1.7,0.3,3,0.7,3.9,1.1c1.8,0.9,3.2,2.1,4.1,3.6c1,1.5,1.5,3.3,1.5,5.3c0,1.9-0.5,3.6-1.4,5.3c-0.9,1.6-2.2,2.9-3.8,3.9
			c-1.6,1-3.5,1.5-5.5,1.5c-1.1,0-2-0.1-2.6-0.3c-0.6-0.2-1.6-0.5-3-1s-2.5-0.8-3.2-0.8c-1.3,0-2.2,0.5-3,1.4h-1.3V381.8z
			 M274.5,366.6l-0.8-4.5c-0.5,0.2-1,0.3-1.5,0.3c-0.6,0-1.2-0.1-1.8-0.3c0.6,0.4,1.2,0.9,1.6,1.4c0.5,0.5,1,1.1,1.5,1.8
			C274,366,274.4,366.5,274.5,366.6z M256.9,386.2v6.3c0.5-0.6,0.9-1,1.2-1.1c0.4-0.2,1-0.2,1.8-0.2c-0.5-0.6-0.9-1.1-1.1-1.3
			c-0.2-0.3-0.5-0.7-0.8-1.3C257.6,387.9,257.2,387.1,256.9,386.2z M256.9,366.8c-0.3,1.2-0.4,2.1-0.4,2.9c0,0.8,0.1,1.7,0.4,2.5
			c0.3,0.8,0.7,1.6,1.2,2.4c0.5,0.7,1.2,1.3,1.9,1.8c0.9,0.6,1.9,1.1,3,1.3c1.1,0.3,2.7,0.6,4.9,0.9c2.1,0.3,3.6,0.7,4.4,1
			c1.5,0.5,2.7,1.4,3.5,2.5c0.8,1.1,1.3,2.4,1.3,4c0,1.1-0.3,2.3-1,3.6c1.3-1.3,1.9-2.9,1.9-4.7c0-1.8-0.5-3.3-1.4-4.3
			c-0.9-1.1-2.1-1.8-3.5-2.3c-1.4-0.5-3.3-1-5.7-1.4c-2.4-0.4-3.7-0.7-3.7-0.7c-2.2-0.6-3.9-1.6-5.1-3c-1.1-1.4-1.7-3.1-1.7-4.9
			c0-0.3,0-0.6,0-0.9C256.8,367.2,256.8,367,256.9,366.8z"/>
		<path fill="#FAF9F9" d="M360.3,362.6v-1.3h10.5v1.3c-0.7,0.1-1.4,0.4-2.1,0.9c-0.7,0.5-1.4,1.2-2.2,2.2s-1.5,2.1-2.3,3.5
			l-6.9,11.9v8.4c0,1.5,0.4,2.4,1.1,2.8c0.7,0.4,2,0.6,3.9,0.8v1.3h-15.8V393h0.4c1.4,0,2.4-0.2,3-0.5c0.7-0.4,1.1-0.8,1.2-1.4
			c0.2-0.5,0.3-1.3,0.3-2.2v-6.8l-10-16.8c-0.6-1-1.1-1.7-1.6-2.2s-1.4-0.7-2.7-0.7v-1.3h15.4v1.3c-1.4,0-2.5,0.1-3.3,0.4
			s-1.1,0.7-1.1,1.6c0,0.7,0.6,1.9,1.7,3.8l6.8,11.3l4.5-7.6c0.8-1.4,1.4-2.6,1.8-3.6c0.4-1,0.6-1.9,0.6-2.8c0-0.8-0.3-1.5-0.8-2.1
			c-0.5-0.6-1.3-0.9-2.1-0.9H360.3z M364.3,365.4v0.5c0.4-0.8,0.8-1.5,1.1-1.9c0.4-0.4,0.9-0.9,1.5-1.5h-4.1
			C363.8,363.1,364.3,364.1,364.3,365.4z M353.6,381.6l-9.8-16.4c-0.6-1.1-1.1-1.8-1.5-2.1s-0.9-0.5-1.6-0.5H340
			c0.4,0.2,0.8,0.4,1,0.8s0.7,1,1.1,1.8l10,16.8v8.1c0,0.9-0.2,1.5-0.5,1.9c-0.3,0.4-0.9,0.8-1.7,1.1h1c1,0,1.7-0.2,2-0.7
			c0.4-0.5,0.6-1.2,0.6-2.2V381.6z"/>
	</g>
</g>
</svg>
